<?xml version="1.0" encoding="UTF-8"?>
<svg version="1.1" xmlns="http://www.w3.org/2000/svg" width="512" height="512">
<path d="M0 0 C0.76728682 -0.00235223 1.53457363 -0.00470446 2.32511157 -0.00712797 C4.91725746 -0.01382828 7.50935335 -0.01335944 10.10150719 -0.01294994 C11.97034226 -0.01624793 13.83917663 -0.01997336 15.70801008 -0.02409142 C20.86017209 -0.03412702 26.01232244 -0.03783072 31.16449285 -0.04048073 C36.7147714 -0.04437918 42.26504069 -0.05395784 47.81531334 -0.0626936 C61.22764406 -0.0824712 74.63997554 -0.09252594 88.0523172 -0.10142139 C94.36505404 -0.10580223 100.67779003 -0.11116957 106.9905262 -0.11641026 C127.9698633 -0.13342396 148.94920024 -0.1479436 169.92854309 -0.155159 C171.28553914 -0.15563375 172.64253519 -0.15610964 173.99953123 -0.15658666 C174.67248255 -0.15682303 175.34543387 -0.15705941 176.03877765 -0.15730295 C179.44830851 -0.15850415 182.85783937 -0.1597196 186.26737022 -0.16094494 C186.94400332 -0.16118509 187.62063641 -0.16142524 188.31777353 -0.16167267 C210.25466375 -0.16956517 232.19149989 -0.19299549 254.12836649 -0.22550088 C277.31889897 -0.2598012 300.50940112 -0.2795092 323.69996297 -0.28280324 C336.34230513 -0.28497013 348.98456783 -0.29374495 361.62688637 -0.31926441 C372.39255821 -0.34094522 383.15813128 -0.34903472 393.92382248 -0.33929763 C399.41755839 -0.33474534 404.91109041 -0.33669325 410.40479851 -0.35605907 C415.43471587 -0.373637 420.46427979 -0.37273661 425.49420063 -0.35716178 C427.31324045 -0.35477754 429.1323044 -0.3591514 430.95130725 -0.37099043 C441.04981212 -0.43264226 449.419656 -0.33468942 457.87039757 5.81000233 C458.38860069 6.35011951 458.90680382 6.8902367 459.44071007 7.44672108 C459.97438194 7.97910389 460.50805382 8.5114867 461.05789757 9.06000233 C464.80115568 14.20940662 466.29908285 20.33681924 467.74222374 26.43890858 C467.93766242 27.24900033 468.1331011 28.05909208 468.33446217 28.89373207 C470.97068044 39.93743641 473.40147953 51.0268685 475.75321007 62.13422108 C475.98584934 63.23054985 476.21848862 64.32687862 476.45817757 65.45642948 C484.5270763 103.82662142 487.44087005 141.14784019 487.12821007 180.32172108 C487.12146137 181.54270496 487.11471268 182.76368885 487.10775948 184.02167225 C487.06026834 192.15889847 486.93699119 200.29188032 486.75711632 208.42718983 C486.73026316 209.99534474 486.73026316 209.99534474 486.70286751 211.59517956 C486.24665306 234.81691748 486.24665306 234.81691748 477.31571007 243.50922108 C468.76608575 249.97398684 461.04868883 250.67574946 450.50321007 250.38422108 C449.2560421 250.3661742 448.00887413 250.34812733 446.72391319 250.32953358 C443.67036415 250.28273589 440.61845447 250.21718476 437.56571007 250.13422108 C437.45227257 251.3330492 437.33883507 252.53187733 437.22196007 253.76703358 C435.66692836 266.03990532 426.94239182 276.03776151 417.56571007 283.50922108 C406.32954485 291.37009556 392.96437845 293.82334488 379.48758507 291.63422108 C366.22746707 288.64219445 354.89058574 282.22960812 347.16336632 270.72406483 C343.94053819 265.50800447 341.61067979 260.94042302 340.46829796 254.90375233 C340.29673683 254.00890125 340.1251757 253.11405018 339.94841576 252.19208241 C339.82212288 251.51298817 339.69583 250.83389393 339.56571007 250.13422108 C338.69326275 250.13790825 337.82081543 250.14159542 336.92193031 250.14539433 C315.70706331 250.23367792 294.4922279 250.29989783 273.27721596 250.34146976 C263.01784487 250.36210728 252.75859628 250.3902506 242.49930382 250.43597889 C233.5587572 250.47581024 224.6182993 250.50164523 215.67766643 250.51057506 C210.94231166 250.51579609 206.20721071 250.52809204 201.47193718 250.5571413 C197.01665878 250.58425196 192.56173923 250.59267492 188.10638618 250.5866518 C186.4696883 250.58775399 184.83297866 250.59573388 183.19635201 250.61104298 C180.96398663 250.63090376 178.73298146 250.62617581 176.50058556 250.61523914 C175.25063427 250.61892632 174.00068298 250.62261349 172.71285439 250.62641239 C169.56571007 250.13422108 169.56571007 250.13422108 167.13228035 248.29165745 C165.56571007 246.13422108 165.56571007 246.13422108 165.56571007 243.13422108 C159.29571007 243.13422108 153.02571007 243.13422108 146.56571007 243.13422108 C145.90571007 244.78422108 145.24571007 246.43422108 144.56571007 248.13422108 C141.26282671 250.33614332 140.2910828 250.37382076 136.46024132 250.32953358 C135.47733116 250.32308826 134.49442101 250.31664295 133.48172569 250.31000233 C131.94548546 250.28486561 131.94548546 250.28486561 130.37821007 250.25922108 C129.34244835 250.25019764 128.30668663 250.2411742 127.23953819 250.23187733 C124.68136322 250.20829968 122.12365259 250.17539138 119.56571007 250.13422108 C119.40755821 250.93223133 119.24940636 251.73024158 119.08646202 252.55243397 C116.30200569 266.07144151 109.44504969 276.34107363 98.31571007 284.32172108 C86.01626583 292.18495551 72.02282616 293.87833354 57.87821007 290.94672108 C44.65766808 287.5314144 34.53582801 279.10289835 27.03836632 267.75922108 C23.89995516 262.16502401 21.56571007 256.58180113 21.56571007 250.13422108 C20.70928917 250.16040516 19.85286827 250.18658924 18.97049522 250.21356678 C15.74627642 250.29956046 12.52264826 250.36184012 9.29764366 250.40887928 C7.91072743 250.43378913 6.5239392 250.4677311 5.13748741 250.51141834 C-3.6040895 250.77966168 -11.16001305 250.54732354 -18.43428993 245.13422108 C-24.6912815 238.49358337 -26.73641845 232.56785299 -26.70171547 223.46251392 C-26.70624658 222.59000612 -26.7107777 221.71749832 -26.71544611 220.81855088 C-26.72810494 217.89531873 -26.72646878 214.97227253 -26.72481728 212.049016 C-26.73080161 209.95290862 -26.73760694 207.85680345 -26.7451725 205.76070118 C-26.76284969 200.06641506 -26.76752862 194.37218904 -26.76880407 188.67787814 C-26.77070309 183.92394192 -26.77806069 179.17001971 -26.78514826 174.41608888 C-26.80143647 163.199323 -26.80631683 151.98258922 -26.8048954 140.76581287 C-26.80369394 129.19657551 -26.82479571 117.62752469 -26.85638273 106.05833453 C-26.88253813 96.12442401 -26.893263 86.19057445 -26.89198458 76.25662977 C-26.89147472 70.32407406 -26.89717142 64.39168411 -26.91834068 58.45916271 C-26.93771042 52.87851244 -26.93785597 47.29818625 -26.92330742 41.71752453 C-26.92121665 39.67131546 -26.92593615 37.62508618 -26.93802834 35.57891178 C-26.95348874 32.78118758 -26.94416731 29.98457971 -26.92876625 27.18687916 C-26.93905338 26.38092955 -26.9493405 25.57497995 -26.95993936 24.74460763 C-26.87520904 17.75905176 -24.59937159 12.70891278 -20.12178993 7.38422108 C-13.83843438 2.12373736 -8.17203234 -0.016888 0 0 Z " fill="#1684B7" transform="translate(26.434289932250977,109.86577892303467)"/>
<path d="M0 0 C0.76728682 -0.00235223 1.53457363 -0.00470446 2.32511157 -0.00712797 C4.91725746 -0.01382828 7.50935335 -0.01335944 10.10150719 -0.01294994 C11.97034226 -0.01624793 13.83917663 -0.01997336 15.70801008 -0.02409142 C20.86017209 -0.03412702 26.01232244 -0.03783072 31.16449285 -0.04048073 C36.7147714 -0.04437918 42.26504069 -0.05395784 47.81531334 -0.0626936 C61.22764406 -0.0824712 74.63997554 -0.09252594 88.0523172 -0.10142139 C94.36505404 -0.10580223 100.67779003 -0.11116957 106.9905262 -0.11641026 C127.9698633 -0.13342396 148.94920024 -0.1479436 169.92854309 -0.155159 C171.28553914 -0.15563375 172.64253519 -0.15610964 173.99953123 -0.15658666 C174.67248255 -0.15682303 175.34543387 -0.15705941 176.03877765 -0.15730295 C179.44830851 -0.15850415 182.85783937 -0.1597196 186.26737022 -0.16094494 C186.94400332 -0.16118509 187.62063641 -0.16142524 188.31777353 -0.16167267 C210.25466375 -0.16956517 232.19149989 -0.19299549 254.12836649 -0.22550088 C277.31889897 -0.2598012 300.50940112 -0.2795092 323.69996297 -0.28280324 C336.34230513 -0.28497013 348.98456783 -0.29374495 361.62688637 -0.31926441 C372.39255821 -0.34094522 383.15813128 -0.34903472 393.92382248 -0.33929763 C399.41755839 -0.33474534 404.91109041 -0.33669325 410.40479851 -0.35605907 C415.43471587 -0.373637 420.46427979 -0.37273661 425.49420063 -0.35716178 C427.31324045 -0.35477754 429.1323044 -0.3591514 430.95130725 -0.37099043 C441.04981212 -0.43264226 449.419656 -0.33468942 457.87039757 5.81000233 C458.38860069 6.35011951 458.90680382 6.8902367 459.44071007 7.44672108 C459.97438194 7.97910389 460.50805382 8.5114867 461.05789757 9.06000233 C464.80115568 14.20940662 466.29908285 20.33681924 467.74222374 26.43890858 C467.93766242 27.24900033 468.1331011 28.05909208 468.33446217 28.89373207 C470.97068044 39.93743641 473.40147953 51.0268685 475.75321007 62.13422108 C475.98584934 63.23054985 476.21848862 64.32687862 476.45817757 65.45642948 C484.5270763 103.82662142 487.44087005 141.14784019 487.12821007 180.32172108 C487.12146137 181.54270496 487.11471268 182.76368885 487.10775948 184.02167225 C487.06026834 192.15889847 486.93699119 200.29188032 486.75711632 208.42718983 C486.73026316 209.99534474 486.73026316 209.99534474 486.70286751 211.59517956 C486.24665306 234.81691748 486.24665306 234.81691748 477.31571007 243.50922108 C468.76608575 249.97398684 461.04868883 250.67574946 450.50321007 250.38422108 C449.2560421 250.3661742 448.00887413 250.34812733 446.72391319 250.32953358 C443.67036415 250.28273589 440.61845447 250.21718476 437.56571007 250.13422108 C437.45227257 251.3330492 437.33883507 252.53187733 437.22196007 253.76703358 C435.66692836 266.03990532 426.94239182 276.03776151 417.56571007 283.50922108 C406.32954485 291.37009556 392.96437845 293.82334488 379.48758507 291.63422108 C366.22746707 288.64219445 354.89058574 282.22960812 347.16336632 270.72406483 C343.94053819 265.50800447 341.61067979 260.94042302 340.46829796 254.90375233 C340.29673683 254.00890125 340.1251757 253.11405018 339.94841576 252.19208241 C339.82212288 251.51298817 339.69583 250.83389393 339.56571007 250.13422108 C338.69326275 250.13790825 337.82081543 250.14159542 336.92193031 250.14539433 C315.70706331 250.23367792 294.4922279 250.29989783 273.27721596 250.34146976 C263.01784487 250.36210728 252.75859628 250.3902506 242.49930382 250.43597889 C233.5587572 250.47581024 224.6182993 250.50164523 215.67766643 250.51057506 C210.94231166 250.51579609 206.20721071 250.52809204 201.47193718 250.5571413 C197.01665878 250.58425196 192.56173923 250.59267492 188.10638618 250.5866518 C186.4696883 250.58775399 184.83297866 250.59573388 183.19635201 250.61104298 C180.96398663 250.63090376 178.73298146 250.62617581 176.50058556 250.61523914 C175.25063427 250.61892632 174.00068298 250.62261349 172.71285439 250.62641239 C168.99394551 250.04480111 167.80869234 249.09987836 165.56571007 246.13422108 C165.25321007 244.09906483 165.25321007 244.09906483 165.56571007 242.07172108 C165.64821007 241.40011951 165.73071007 240.72851795 165.81571007 240.03656483 C166.87429875 237.35149874 168.07820942 236.59724362 170.56571007 235.13422108 C173.71285439 234.76507759 173.71285439 234.76507759 177.50058556 234.77345753 C178.19820716 234.77089425 178.89582876 234.76833098 179.61459041 234.76569003 C181.95172234 234.76074937 184.28820798 234.77724907 186.62528038 234.79364491 C188.30072578 234.79449112 189.9761723 234.79401615 191.65161705 234.79231739 C196.20091915 234.79145579 200.7499845 234.80910822 205.29923153 234.83003926 C210.05314564 234.84877859 214.80706502 234.85055434 219.56101036 234.85411549 C228.56366845 234.86344402 237.56621739 234.88806876 246.56882739 234.91816396 C256.81780288 234.9516828 267.06678355 234.96818765 277.31580019 234.98325026 C298.39916443 235.01461759 319.48243037 235.06739382 340.56571007 235.13422108 C340.64992714 234.21957836 340.64992714 234.21957836 340.73584557 233.28645802 C340.85634773 232.08006924 340.85634773 232.08006924 340.97928429 230.84930897 C341.056054 230.05392216 341.13282372 229.25853535 341.21191978 228.43904591 C342.68957803 218.81259888 350.45196346 208.96362146 358.10086632 203.23578358 C370.60235605 194.90145709 382.5449165 191.94966781 397.56571007 193.13422108 C401.461956 194.05688421 404.95029314 195.42756464 408.56571007 197.13422108 C409.33399132 197.48484608 410.10227257 197.83547108 410.89383507 198.19672108 C422.62568367 204.10366583 430.34602691 213.26200057 435.56571007 225.13422108 C436.37086704 228.11187259 437.01191845 231.10040612 437.56571007 234.13422108 C441.27389304 234.22178413 444.9818077 234.27480123 448.69071007 234.32172108 C449.73742882 234.3468578 450.78414757 234.37199451 451.86258507 234.39789295 C459.66850218 234.51146288 459.66850218 234.51146288 466.56571007 231.13422108 C469.14707794 227.53439651 469.94649421 225.0152556 469.99808311 220.60956287 C470.02777435 218.98844845 470.02777435 218.98844845 470.05806541 217.33458424 C470.06445534 216.17920658 470.07084526 215.02382893 470.07742882 213.83343983 C470.09538002 212.64192814 470.11333122 211.45041645 470.1318264 210.22279835 C470.18594697 206.4224751 470.21983183 202.6222776 470.25321007 198.82172108 C470.28638147 196.24292753 470.32087096 193.66415058 470.35672569 191.08539295 C470.44167469 184.76844841 470.51001743 178.45148764 470.56571007 172.13422108 C469.45558556 172.07726063 468.34546104 172.02030018 467.2016964 171.96161366 C444.20278164 170.75199833 421.04595876 169.39813969 398.56571007 164.13422108 C397.36567345 163.85989246 397.36567345 163.85989246 396.14139366 163.58002186 C378.14487324 159.39704684 356.58436439 153.83478044 343.96805382 139.51703358 C340.19885176 133.11253983 339.11892376 126.54731848 339.16165733 119.22137928 C339.15136246 117.9610236 339.15136246 117.9610236 339.1408596 116.67520618 C339.12272103 113.9282944 339.12640853 111.18196047 339.13211632 108.43500233 C339.12755011 106.51167587 339.12224324 104.58835105 339.11623192 102.66502857 C339.10732767 98.64809985 339.10969541 94.63137026 339.11966515 90.61444569 C339.13118437 85.4729973 339.1108845 80.33223272 339.08174801 75.1908741 C339.06339068 71.22482938 339.06367698 67.25894897 339.06938553 63.29287243 C339.06953862 61.3970916 339.06350406 59.50129956 339.05109406 57.60555935 C339.03618485 54.95622963 339.04685807 52.30816975 339.06400108 49.65887928 C339.05433311 48.88107609 339.04466515 48.1032729 339.03470421 47.30189991 C339.12332158 40.7482983 341.42282166 37.50217506 345.689291 32.78760242 C349.94985286 30.33860826 353.75591479 30.60658969 358.58841515 30.68011951 C359.59376305 30.67953541 360.59911095 30.6789513 361.63492393 30.67834949 C364.95204977 30.68113225 368.26827279 30.71223436 371.58524132 30.74359608 C373.88737561 30.75105776 376.18951625 30.75675103 378.49165916 30.76074696 C384.54659162 30.77600888 390.6011394 30.81529608 396.65592003 30.85956287 C402.83608357 30.90050319 409.01630935 30.91875536 415.19656944 30.93890858 C427.3197852 30.98178932 439.44271562 31.05004786 451.56571007 31.13422108 C451.1410451 29.360266 450.70046917 27.59011477 450.25321007 25.82172108 C450.00957726 24.83558826 449.76594444 23.84945545 449.51492882 22.83343983 C448.5485771 20.08550141 447.85403463 18.88012797 445.56571007 17.13422108 C442.05297943 15.96331086 438.89901762 15.99363855 435.24518585 16.00279331 C434.49020764 16.00074068 433.73522942 15.99868804 432.95737308 15.99657321 C430.40713505 15.99088251 427.85695067 15.992363 425.30670738 15.99377918 C423.46802008 15.99119674 421.62933334 15.98818392 419.79064739 15.98477578 C414.72197378 15.97668847 409.65331432 15.97491525 404.58463502 15.97417831 C399.12441453 15.97233079 393.66420144 15.96478504 388.20398521 15.9580431 C376.25792813 15.94444751 364.3118744 15.9384333 352.36581087 15.93403244 C344.91140515 15.93127239 337.45700074 15.92703551 330.0025959 15.92252827 C309.37667802 15.91033458 288.75076119 15.90003508 268.12483978 15.89665318 C266.79080802 15.89643154 265.45677626 15.89620976 264.12274449 15.89598782 C262.78546651 15.89576718 261.44818852 15.8955467 260.11091053 15.89532638 C257.42803772 15.89488382 254.74516491 15.89443671 252.0622921 15.8939867 C251.06449602 15.89382262 251.06449602 15.89382262 250.04654244 15.89365521 C228.469718 15.89002329 206.89292713 15.87409805 185.31611555 15.85079634 C162.51169014 15.82621382 139.70727925 15.81248783 116.90283954 15.81128526 C104.4685564 15.81036719 92.03431722 15.80458169 79.60004616 15.78646564 C69.01433143 15.77109751 58.42867424 15.76592474 47.84295048 15.77420375 C42.43885575 15.77812178 37.03487703 15.7771246 31.63079643 15.7631464 C26.68748994 15.75047656 21.74438745 15.75154373 16.80108152 15.76373711 C15.00903294 15.76570616 13.21697025 15.76256047 11.42494155 15.75389275 C8.99568269 15.74288312 6.56715435 15.75022879 4.13791656 15.76228428 C3.43637111 15.75468909 2.73482565 15.74709389 2.01202124 15.73926854 C-2.30427837 15.7857555 -4.97584085 16.53979843 -8.43428993 19.13422108 C-11.21758875 22.72203466 -10.71879462 27.06820641 -10.70171547 31.40887928 C-10.70624658 32.2506865 -10.7107777 33.09249372 -10.71544611 33.95981026 C-10.72812218 36.78492983 -10.72646769 39.60985743 -10.72481728 42.43500233 C-10.73080042 44.45863563 -10.73760547 46.48226666 -10.7451725 48.50589466 C-10.76285889 54.00576315 -10.76752892 59.50556943 -10.76880407 65.0054636 C-10.77070164 69.59320994 -10.77805731 74.18094173 -10.78514826 78.76868248 C-10.80143893 89.58877835 -10.8063165 100.40884092 -10.8048954 111.22894764 C-10.80369295 122.40118835 -10.82481393 133.5732362 -10.85638273 144.74542809 C-10.88250378 154.33021456 -10.89326449 163.91493786 -10.89198458 173.49975967 C-10.89147383 179.22764265 -10.89721959 184.95535418 -10.91834068 190.68320179 C-10.93765349 196.06766492 -10.93789533 201.45179178 -10.92330742 206.83626652 C-10.92120974 208.81481509 -10.92597693 210.79338433 -10.93802834 212.77189732 C-10.95339108 215.46818555 -10.94423273 218.16330116 -10.92876625 220.85956287 C-10.93905338 221.64671838 -10.9493405 222.43387388 -10.95993936 223.24488258 C-10.91478271 226.79491309 -10.73783671 228.743275 -8.52838516 231.58888721 C-4.9926904 234.1980469 -2.92208005 234.25309384 1.44852257 234.23187733 C2.61512413 234.22865467 3.78172569 234.22543201 4.98367882 234.2221117 C6.20699913 234.2137328 7.43031944 234.20535389 8.69071007 234.19672108 C10.5372921 234.1899535 10.5372921 234.1899535 12.42117882 234.1830492 C15.46940399 234.17123438 18.51753321 234.15476135 21.56571007 234.13422108 C21.8339962 233.05189198 21.8339962 233.05189198 22.10770226 231.94769764 C24.96218883 220.8953324 29.71197385 211.5657508 38.56571007 204.13422108 C39.07360069 203.68691639 39.58149132 203.2396117 40.10477257 202.77875233 C50.67666993 194.31602661 64.44787654 192.01149605 77.56571007 193.13422108 C92.03036104 195.88564925 103.31251419 203.39924996 111.69852257 215.32953358 C115.11127814 220.45580659 117.57718911 224.67317404 118.16336632 230.87640858 C118.2420797 231.67675526 118.32079308 232.47710194 118.40189171 233.30170155 C118.45595177 233.90643299 118.51001183 234.51116444 118.56571007 235.13422108 C119.24150108 235.11327381 119.9172921 235.09232655 120.61356163 235.07074451 C123.68079261 234.98750465 126.74778589 234.93553642 129.81571007 234.88422108 C130.87918663 234.85070545 131.94266319 234.81718983 133.03836632 234.78265858 C134.06317101 234.76976795 135.08797569 234.75687733 136.14383507 234.74359608 C137.08646202 234.72264881 138.02908897 234.70170155 139.00028038 234.68011951 C142.34069674 235.27139991 143.47415681 236.52007509 145.56571007 239.13422108 C146.62821007 242.07172108 146.62821007 242.07172108 146.56571007 245.13422108 C144.76883507 247.80609608 144.76883507 247.80609608 141.56571007 250.13422108 C137.77628405 250.74766175 134.07917151 250.60583016 130.25321007 250.44672108 C128.71310265 250.41288319 128.71310265 250.41288319 127.14188194 250.3783617 C124.61499216 250.31959682 122.09110751 250.23749957 119.56571007 250.13422108 C119.36268272 251.22476795 119.36268272 251.22476795 119.15555382 252.33734608 C116.24126402 265.948999 109.57177872 276.25019854 98.31571007 284.32172108 C86.01626583 292.18495551 72.02282616 293.87833354 57.87821007 290.94672108 C44.65766808 287.5314144 34.53582801 279.10289835 27.03836632 267.75922108 C23.89995516 262.16502401 21.56571007 256.58180113 21.56571007 250.13422108 C20.70928917 250.16040516 19.85286827 250.18658924 18.97049522 250.21356678 C15.74627642 250.29956046 12.52264826 250.36184012 9.29764366 250.40887928 C7.91072743 250.43378913 6.5239392 250.4677311 5.13748741 250.51141834 C-3.6040895 250.77966168 -11.16001305 250.54732354 -18.43428993 245.13422108 C-24.6912815 238.49358337 -26.73641845 232.56785299 -26.70171547 223.46251392 C-26.70624658 222.59000612 -26.7107777 221.71749832 -26.71544611 220.81855088 C-26.72810494 217.89531873 -26.72646878 214.97227253 -26.72481728 212.049016 C-26.73080161 209.95290862 -26.73760694 207.85680345 -26.7451725 205.76070118 C-26.76284969 200.06641506 -26.76752862 194.37218904 -26.76880407 188.67787814 C-26.77070309 183.92394192 -26.77806069 179.17001971 -26.78514826 174.41608888 C-26.80143647 163.199323 -26.80631683 151.98258922 -26.8048954 140.76581287 C-26.80369394 129.19657551 -26.82479571 117.62752469 -26.85638273 106.05833453 C-26.88253813 96.12442401 -26.893263 86.19057445 -26.89198458 76.25662977 C-26.89147472 70.32407406 -26.89717142 64.39168411 -26.91834068 58.45916271 C-26.93771042 52.87851244 -26.93785597 47.29818625 -26.92330742 41.71752453 C-26.92121665 39.67131546 -26.92593615 37.62508618 -26.93802834 35.57891178 C-26.95348874 32.78118758 -26.94416731 29.98457971 -26.92876625 27.18687916 C-26.93905338 26.38092955 -26.9493405 25.57497995 -26.95993936 24.74460763 C-26.87520904 17.75905176 -24.59937159 12.70891278 -20.12178993 7.38422108 C-13.83843438 2.12373736 -8.17203234 -0.016888 0 0 Z " fill="#000000" transform="translate(26.434289932250977,109.86577892303467)"/>
<path d="M0 0 C1.90584366 -0.00788544 1.90584366 -0.00788544 3.85018921 -0.01593018 C7.3232873 -0.02956771 10.79611705 -0.02432041 14.26921964 -0.01479292 C17.90905541 -0.0071794 21.54886874 -0.01424647 25.18870544 -0.01895142 C31.2991853 -0.02440336 37.40955623 -0.01723142 43.52001953 -0.00292969 C50.57970066 0.01340313 57.63912195 0.00810161 64.69879681 -0.0084089 C70.76690885 -0.0220311 76.83494275 -0.02394009 82.90306515 -0.0160929 C86.52437946 -0.01142133 90.1455717 -0.01077739 93.76687813 -0.02070236 C97.80307489 -0.03099263 101.83882482 -0.01672276 105.875 0 C107.0725441 -0.00607269 108.2700882 -0.01214539 109.50392151 -0.0184021 C110.60437805 -0.00994263 111.70483459 -0.00148315 112.83863831 0.00723267 C114.26909406 0.00892928 114.26909406 0.00892928 115.72844791 0.01066017 C120.20089845 0.64917313 122.74428006 2.66256798 125.65394592 6.02171326 C127.83975705 10.30273787 127.93084684 13.51938276 127.87451172 18.25170898 C127.8826162 19.55770805 127.8826162 19.55770805 127.8908844 20.89009094 C127.90334792 23.75569093 127.8868979 26.62028164 127.86889648 29.48583984 C127.86905151 31.48310906 127.87054114 33.48037857 127.87330627 35.47764587 C127.87468916 39.65800316 127.86214949 43.83801688 127.83935547 48.01831055 C127.81095292 53.37397328 127.81371471 58.72906613 127.82644558 64.08477116 C127.83340304 68.20691284 127.82561298 72.328923 127.81318855 76.4510479 C127.80867601 78.42579074 127.80833553 80.40054771 127.81225395 82.37529182 C127.81516727 85.13517295 127.79865404 87.89427066 127.77685547 90.65405273 C127.78360794 91.87529846 127.78360794 91.87529846 127.79049683 93.12121582 C127.71032318 99.2364637 126.28052811 102.0866448 122.48362732 106.66734314 C117.42726149 109.46441467 112.28152078 108.95188508 106.59960938 108.92163086 C104.65250313 108.93455421 104.65250313 108.93455421 102.6660614 108.94773865 C99.11221504 108.97021524 95.55881438 108.96729713 92.00492406 108.95841718 C89.03524082 108.9533019 86.06564093 108.96060425 83.09596628 108.96788925 C76.08864278 108.98488294 69.08153708 108.98132813 62.07421875 108.96459961 C54.85141693 108.94767933 47.62921951 108.96351216 40.40648371 108.99582249 C34.1990764 109.02253613 27.99185703 109.02978965 21.78439802 109.02130741 C18.0796657 109.01638318 14.37529697 109.01856589 10.67061043 109.03909492 C6.53848793 109.06089695 2.40750795 109.04203371 -1.72460938 109.01928711 C-2.94818146 109.03097931 -4.17175354 109.04267151 -5.43240356 109.05471802 C-14.67360126 108.95109745 -14.67360126 108.95109745 -18.30860901 106.09873962 C-22.66901535 101.00118698 -22.92508268 97.40627511 -22.91772461 90.76757812 C-22.92444183 89.89881042 -22.93115906 89.03004272 -22.93807983 88.13494873 C-22.95707439 85.26357297 -22.96098476 82.39243077 -22.96313477 79.52099609 C-22.96956165 77.52326359 -22.97628993 75.52553203 -22.98330688 73.52780151 C-22.99528328 69.33980121 -22.99898733 65.15188341 -22.99780273 60.96386719 C-22.99759952 55.60147692 -23.02490266 50.23961647 -23.05934715 44.87735176 C-23.08160148 40.75090105 -23.08564072 36.62457815 -23.08458328 32.49807358 C-23.08694141 30.52134246 -23.09577684 28.54460793 -23.11124802 26.56793594 C-23.13087827 23.80077424 -23.12508167 21.0347589 -23.11303711 18.26757812 C-23.12427612 17.45386749 -23.13551514 16.64015686 -23.14709473 15.80178833 C-23.08928437 10.56623857 -22.23759836 7.44191369 -18.62719727 3.38818359 C-13.09672827 -0.77121633 -6.6166098 -0.03360934 0 0 Z " fill="#010203" transform="translate(55.627197265625,140.61181640625)"/>
<path d="M0 0 C33.33 0 66.66 0 101 0 C103.31 12.21 105.62 24.42 108 37 C109.70918844 44.67854414 109.70918844 44.67854414 111.4609375 52.34741211 C116.0003477 72.07400363 116.9878919 90.81470879 116 111 C81.18326571 110.26235732 42.12377918 106.96610638 10.625 91.0625 C10.01188965 90.76303467 9.3987793 90.46356934 8.76708984 90.1550293 C4.28547155 87.73693093 1.90122318 84.62740927 0 80 C-0.353979 77.14554183 -0.51050215 74.69986526 -0.45410156 71.86157227 C-0.4545837 71.06775367 -0.45506584 70.27393507 -0.45556259 69.45606136 C-0.45259805 66.90903926 -0.42223799 64.36321639 -0.390625 61.81640625 C-0.38473726 60.23499108 -0.38066062 58.6535681 -0.37841797 57.07214355 C-0.35752281 51.23547613 -0.30167755 45.39897604 -0.25 39.5625 C-0.1675 26.506875 -0.085 13.45125 0 0 Z " fill="#B3E5FC" transform="translate(381,156)"/>
<path d="M0 0 C93.06 0 186.12 0 282 0 C278.90957106 2.31782171 275.92173698 4.27380472 272.625 6.25 C263.33669501 12.18761672 256.17813464 21.41313617 253.41448975 32.30825806 C253.24644836 33.103237 253.07840698 33.89821594 252.90527344 34.71728516 C252.73332458 35.52122711 252.56137573 36.32516907 252.38421631 37.1534729 C252.19402924 38.06750381 252.19402924 38.06750381 252 39 C251.12663089 39.00331015 250.25326178 39.00662029 249.35342693 39.01003075 C228.12212503 39.09118006 206.89089509 39.18324585 185.65969372 39.28752708 C175.39252913 39.33769183 165.12537269 39.38413426 154.8581543 39.421875 C145.91134837 39.45477148 136.96460492 39.49458962 128.01786786 39.54279006 C123.2787469 39.56807841 118.5396675 39.58985275 113.80049706 39.60334396 C109.34278065 39.61614317 104.88520661 39.63817426 100.42756844 39.66738319 C98.7888734 39.67647577 97.15015543 39.6821531 95.51143646 39.68421364 C93.27900164 39.68752438 91.04697339 39.70296899 88.81462097 39.7215271 C87.56374789 39.72705786 86.31287481 39.73258862 85.02409649 39.73828697 C81.82224682 39.77118911 81.82224682 39.77118911 79 42 C78.34 43.65 77.68 45.3 77 47 C70.4 47 63.8 47 57 47 C56.34 45.02 55.68 43.04 55 41 C52.48322887 39.74161443 50.58706712 39.79181027 47.7734375 39.68359375 C46.7421875 39.64169922 45.7109375 39.59980469 44.6484375 39.55664062 C43.02808594 39.49766602 43.02808594 39.49766602 41.375 39.4375 C39.74304688 39.37272461 39.74304688 39.37272461 38.078125 39.30664062 C35.3855483 39.2003547 32.69287747 39.09831943 30 39 C29.81606689 38.27264648 29.63213379 37.54529297 29.44262695 36.79589844 C25.66156589 22.31687824 19.46618931 12.29906026 6.5859375 4.578125 C4 3 4 3 0 0 Z " fill="#097592" transform="translate(115,306)"/>
<path d="M0 0 C17.16 0 34.32 0 52 0 C52.495 7.92 52.495 7.92 53 16 C53.99 17.65 54.98 19.3 56 21 C59.5 21.66666667 59.5 21.66666667 63 21 C68.08536824 16.58142662 68.08536824 16.58142662 67 0 C84.49 0 101.98 0 120 0 C120 25.74 120 51.48 120 78 C102.51 78 85.02 78 67 78 C66.625 62.125 66.625 62.125 66.52197266 57.11767578 C66.46855713 55.17610596 66.46855713 55.17610596 66.4140625 53.1953125 C66.40270264 52.51460693 66.39134277 51.83390137 66.37963867 51.13256836 C66.35398065 47.1205982 66.35398065 47.1205982 64 44 C58.93994135 43.35979561 58.93994135 43.35979561 54.40869141 45.08056641 C52.27576231 47.98682093 52.56108628 50.50677207 52.48828125 54.07421875 C52.43861206 55.95113403 52.43861206 55.95113403 52.38793945 57.8659668 C52.35059692 60.25262573 52.35059692 60.25262573 52.3125 62.6875 C52.209375 67.740625 52.10625 72.79375 52 78 C34.84 78 17.68 78 0 78 C0 52.26 0 26.52 0 0 Z " fill="#B3E5FC" transform="translate(213,156)"/>
<path d="M0 0 C1.11316086 -0.0071553 2.22632172 -0.01431061 3.37321472 -0.02168274 C4.60024612 -0.02437164 5.82727753 -0.02706055 7.0914917 -0.02983093 C8.37937088 -0.03640213 9.66725006 -0.04297333 10.99415588 -0.04974365 C14.5335774 -0.06715896 18.0729854 -0.07770717 21.61243916 -0.08594918 C23.82396237 -0.09109897 26.03548139 -0.09717476 28.24700165 -0.10346031 C35.16681392 -0.12251519 42.08661551 -0.13674483 49.00644898 -0.14507228 C56.9931256 -0.15484223 64.97952489 -0.1811539 72.96610379 -0.22157317 C79.1394376 -0.25174295 85.31269196 -0.26654202 91.48609805 -0.26985329 C95.17297841 -0.27220311 98.85956259 -0.28115387 102.54636383 -0.30631447 C106.66184407 -0.33394615 110.77670583 -0.32976147 114.89227295 -0.32279968 C116.11120743 -0.33560974 117.33014191 -0.3484198 118.58601379 -0.36161804 C129.23524357 -0.29585527 129.23524357 -0.29585527 133.75067139 4.14717102 C136.94435558 8.83263671 137.18171374 13.19195274 137.13885498 18.7035675 C137.14674042 19.96085663 137.14674042 19.96085663 137.15478516 21.24354553 C137.16794045 24.00197737 137.15926219 26.75982751 137.14910889 29.51826477 C137.1511311 31.44348257 137.15404376 33.36869961 137.1578064 35.29391479 C137.16222386 39.32458301 137.15581798 43.35505146 137.14178467 47.38569641 C137.1247047 52.5416097 137.13453016 57.69705405 137.15250206 62.8529501 C137.16336531 66.82761133 137.15988169 70.80216222 137.15211868 74.77682686 C137.15012311 76.67735411 137.1525533 78.57789151 137.15955734 80.47840691 C137.1672124 83.13966612 137.15551064 85.80017628 137.13885498 88.46138 C137.14492767 89.24030106 137.15100037 90.01922211 137.15725708 90.82174683 C137.08629702 96.97018247 135.7416454 101.61905006 131.85575867 106.55331421 C126.78958335 109.1538073 121.67853102 108.69346813 116.0692749 108.64888 C114.78095764 108.65428299 113.49264038 108.65968597 112.1652832 108.66525269 C108.63825753 108.67919679 105.11172028 108.66804473 101.5847218 108.65154147 C97.88929711 108.63767121 94.19390021 108.64415341 90.49845886 108.64767456 C84.29200388 108.65037547 78.08574242 108.63691264 71.8793335 108.61372375 C64.71118961 108.58712637 57.54336949 108.58536358 50.37519318 108.59711212 C43.47190317 108.60790518 36.5687299 108.60169012 29.66544914 108.58755684 C26.73136563 108.58180907 23.79736789 108.5818702 20.86328316 108.58662224 C16.76249812 108.59229665 12.66219328 108.5730399 8.5614624 108.55122375 C7.34724106 108.5557254 6.13301971 108.56022705 4.88200378 108.56486511 C-5.96304066 108.46896677 -5.96304066 108.46896677 -10.24932861 105.14717102 C-13.63114778 100.33409348 -13.69452989 95.88782998 -13.68511963 90.22358704 C-13.69519547 89.34638 -13.7052713 88.46917297 -13.71565247 87.56538391 C-13.74405651 84.67715068 -13.75000482 81.78944131 -13.75323486 78.90107727 C-13.76287993 76.88617745 -13.77297271 74.87127972 -13.78349304 72.85638428 C-13.80143458 68.63742705 -13.80701597 64.41865392 -13.80523682 60.19966125 C-13.80493179 54.80128583 -13.84591574 49.40409277 -13.89755344 44.00599766 C-13.93095332 39.84602464 -13.93699332 35.68633657 -13.93540764 31.52624321 C-13.93894096 29.53636022 -13.95217265 27.54646933 -13.97540474 25.55671883 C-14.00489742 22.77035867 -13.99614231 19.98655336 -13.97808838 17.20014954 C-14.00337616 15.97566353 -14.00337616 15.97566353 -14.0291748 14.72644043 C-13.93901909 9.23376009 -12.50536879 6.44144292 -8.73152065 2.45780849 C-5.86702524 -0.07513928 -3.72667336 0.01639896 0 0 Z M1.75067139 15.14717102 C1.75067139 40.88717102 1.75067139 66.62717102 1.75067139 93.14717102 C18.91067139 93.14717102 36.07067139 93.14717102 53.75067139 93.14717102 C53.96061529 83.08044239 53.96061529 83.08044239 54.13861084 73.01313782 C54.18828003 71.13622253 54.18828003 71.13622253 54.23895264 69.22138977 C54.26513672 67.93836975 54.2913208 66.65534973 54.31829834 65.33345032 C54.75067139 62.14717102 54.75067139 62.14717102 56.15936279 60.22773743 C59.21709301 58.1514082 62.16413247 58.86252507 65.75067139 59.14717102 C68.5427327 61.93923234 68.10226914 64.59947188 68.16473389 68.34248352 C68.21814941 70.28405334 68.21814941 70.28405334 68.27264404 72.2648468 C68.30664307 73.91726379 68.34064209 75.56968079 68.37567139 77.27217102 C68.49942139 82.51092102 68.62317139 87.74967102 68.75067139 93.14717102 C86.24067139 93.14717102 103.73067139 93.14717102 121.75067139 93.14717102 C121.75067139 67.40717102 121.75067139 41.66717102 121.75067139 15.14717102 C104.26067139 15.14717102 86.77067139 15.14717102 68.75067139 15.14717102 C68.42067139 21.08717102 68.09067139 27.02717102 67.75067139 33.14717102 C64.75067139 36.14717102 64.75067139 36.14717102 61.25067139 36.64717102 C60.09567139 36.48217102 58.94067139 36.31717102 57.75067139 36.14717102 C54.75067139 31.14717102 54.75067139 31.14717102 53.75067139 15.14717102 C36.59067139 15.14717102 19.43067139 15.14717102 1.75067139 15.14717102 Z " fill="#010203" transform="translate(211.24932861328125,140.8528289794922)"/>
<path d="M0 0 C17.49 0 34.98 0 53 0 C53 25.74 53 51.48 53 78 C35.51 78 18.02 78 0 78 C0 52.26 0 26.52 0 0 Z " fill="#B2E3FA" transform="translate(48,156)"/>
<path d="M0 0 C17.16 0 34.32 0 52 0 C52 25.74 52 51.48 52 78 C34.84 78 17.68 78 0 78 C0 52.26 0 26.52 0 0 Z " fill="#B4E6FD" transform="translate(116,156)"/>
<path d="M0 0 C9.9 0 19.8 0 30 0 C30.4125 2.21847656 30.825 4.43695313 31.25 6.72265625 C31.52754517 8.20596088 31.80541867 9.68920414 32.08374023 11.17236328 C32.54584316 13.63514372 33.00660367 16.09813639 33.46316528 18.56195068 C35.22262819 28.05367295 37.06934086 37.50452108 39.24609375 46.91015625 C44.20499384 68.6036141 46.08883842 88.75209955 45 111 C41.68701792 110.88628525 38.37481186 110.75670226 35.0625 110.625 C34.15564453 110.5940625 33.24878906 110.563125 32.31445312 110.53125 C26.19951805 110.27908773 20.16719464 109.71180464 14.09545898 108.97412109 C12.92303272 108.83383736 12.92303272 108.83383736 11.72692108 108.6907196 C9.81775793 108.46205601 7.90885171 108.23124905 6 108 C5.99857498 107.07832535 5.99714996 106.1566507 5.99568176 105.20704651 C5.97764104 96.39962076 5.93541869 87.59268349 5.86790943 78.7854929 C5.83402798 74.26065883 5.80859138 69.7361484 5.80444336 65.21118164 C5.78028746 45.40655 5.60683918 26.49283351 0.4460907 7.21885681 C0 5 0 5 0 0 Z " fill="#99D6EB" transform="translate(452,156)"/>
<path d="M0 0 C7.88322737 4.44092391 13.32705593 10.87065439 16.765625 19.2734375 C19.01636079 27.70085006 18.8729236 38.25586917 15.0703125 46.16796875 C9.16158166 55.5805292 2.07714369 60.99121252 -8.37890625 64.4765625 C-20.24678211 65.2982883 -29.49959604 64.64168505 -39.12890625 56.9765625 C-45.94078961 50.53909116 -49.81658012 41.99401459 -50.6171875 32.71484375 C-50.87374793 22.60096156 -48.73404269 15.88716677 -42.12890625 8.1640625 C-30.52026735 -3.97830693 -15.52515264 -7.38114827 0 0 Z " fill="#010102" transform="translate(431.37890625,321.5234375)"/>
<path d="M0 0 C8.63760913 5.2903583 14.38827003 12.19093631 18.69140625 21.20703125 C20.93518449 31.81398295 19.3752822 41.9004908 13.75390625 51.14453125 C9.13032064 57.59471858 2.82768298 62.87218558 -4.91796875 65.01171875 C-16.41747295 66.90614574 -25.78526383 66.23984362 -35.62109375 59.45703125 C-42.3660706 54.34229788 -45.97662692 47.39043173 -48.62109375 39.45703125 C-49.23359156 30.52058775 -49.68710448 22.21389042 -44.62109375 14.45703125 C-44.13511719 13.68875 -43.64914063 12.92046875 -43.1484375 12.12890625 C-33.59441393 -1.51324561 -15.41758149 -7.18809813 0 0 Z " fill="#010102" transform="translate(111.62109375,320.54296875)"/>
<path d="M0 0 C3.12545854 0.11712764 6.25012707 0.24370282 9.375 0.375 C10.22578125 0.4059375 11.0765625 0.436875 11.953125 0.46875 C21.01667088 0.86281721 29.99521138 1.93966029 39 3 C39.10152851 10.58044988 39.17151993 18.160724 39.21972656 25.74169922 C39.23982563 28.31989088 39.26710941 30.89803704 39.30175781 33.47607422 C39.35034847 37.18468461 39.37298658 40.89269156 39.390625 44.6015625 C39.41127014 45.75177887 39.43191528 46.90199524 39.45318604 48.08706665 C39.45494104 54.36455294 39.30451371 58.27311759 35 63 C29.57500579 67.03072 23.58375656 66.34260561 17.125 66.1875 C16.05507813 66.17396484 14.98515625 66.16042969 13.8828125 66.14648438 C11.25468489 66.11128624 8.62760806 66.06204693 6 66 C4.77303546 62.97695364 3.7011516 60.01211909 2.8125 56.875 C-1.21003181 44.84742975 -9.31229601 35.68866247 -20.5625 30 C-22.0349717 29.31867367 -23.51179374 28.64623571 -25 28 C-25 27.67 -25 27.34 -25 27 C-23.83082031 26.96261719 -22.66164063 26.92523438 -21.45703125 26.88671875 C-19.90882325 26.8210372 -18.36064758 26.75459061 -16.8125 26.6875 C-15.65911133 26.65366211 -15.65911133 26.65366211 -14.48242188 26.61914062 C-9.88903294 26.40228535 -6.72775301 25.95552545 -3 23 C-0.91254955 19.86882433 -0.72346004 18.93053776 -0.5859375 15.33203125 C-0.54726563 14.43935547 -0.50859375 13.54667969 -0.46875 12.62695312 C-0.42234375 11.23379883 -0.42234375 11.23379883 -0.375 9.8125 C-0.33632813 8.87212891 -0.29765625 7.93175781 -0.2578125 6.96289062 C-0.16356813 4.6421229 -0.07795975 2.32136252 0 0 Z " fill="#097591" transform="translate(458,279)"/>
<path d="M0 0 C21.12 0 42.24 0 64 0 C60 3 60 3 56.8125 4.6875 C46.21226449 10.78037041 38.78183908 20.19883671 35.09375 31.8671875 C34.65290327 33.89637907 34.31313609 35.94721895 34 38 C31.36300062 40.63699938 23.79610839 39.234878 20.25 39.25 C19.05632813 39.270625 17.86265625 39.29125 16.6328125 39.3125 C15.48039062 39.31765625 14.32796875 39.3228125 13.140625 39.328125 C11.55556152 39.34214355 11.55556152 39.34214355 9.93847656 39.35644531 C6.55141707 38.94558565 4.7238889 38.02600364 2 36 C-0.42838862 32.35741707 -0.25702739 29.69339797 -0.1953125 25.48828125 C-0.19329834 24.84258179 -0.19128418 24.19688232 -0.18920898 23.53161621 C-0.17876398 21.12517163 -0.1508413 18.7188285 -0.125 16.3125 C-0.08375 10.929375 -0.0425 5.54625 0 0 Z " fill="#097491" transform="translate(15,306)"/>
<path d="M0 0 C7.88322737 4.44092391 13.32705593 10.87065439 16.765625 19.2734375 C19.01636079 27.70085006 18.8729236 38.25586917 15.0703125 46.16796875 C9.16158166 55.5805292 2.07714369 60.99121252 -8.37890625 64.4765625 C-20.24678211 65.2982883 -29.49959604 64.64168505 -39.12890625 56.9765625 C-45.94078961 50.53909116 -49.81658012 41.99401459 -50.6171875 32.71484375 C-50.87374793 22.60096156 -48.73404269 15.88716677 -42.12890625 8.1640625 C-30.52026735 -3.97830693 -15.52515264 -7.38114827 0 0 Z M-37.96875 16.4140625 C-42.25432018 22.68215407 -41.94795347 29.13229682 -41.37890625 36.4765625 C-40.24320884 41.95985158 -37.6295725 46.78848443 -33.37890625 50.4765625 C-26.14172576 55.19092303 -20.05691121 57.37081265 -11.37890625 56.4765625 C-4.07182956 54.4040529 1.9865552 50.11040878 6.43359375 43.9765625 C9.72999651 37.03676722 11.29047196 30.22946161 8.67578125 22.78515625 C6.34755008 17.87244205 3.81432411 14.0246805 -0.37890625 10.4765625 C-1.01828125 9.9196875 -1.65765625 9.3628125 -2.31640625 8.7890625 C-15.28076008 0.53901916 -28.8830475 5.76037824 -37.96875 16.4140625 Z " fill="#283849" transform="translate(431.37890625,321.5234375)"/>
<path d="M0 0 C8.63760913 5.2903583 14.38827003 12.19093631 18.69140625 21.20703125 C20.93518449 31.81398295 19.3752822 41.9004908 13.75390625 51.14453125 C9.13032064 57.59471858 2.82768298 62.87218558 -4.91796875 65.01171875 C-16.41747295 66.90614574 -25.78526383 66.23984362 -35.62109375 59.45703125 C-42.3660706 54.34229788 -45.97662692 47.39043173 -48.62109375 39.45703125 C-49.23359156 30.52058775 -49.68710448 22.21389042 -44.62109375 14.45703125 C-44.13511719 13.68875 -43.64914063 12.92046875 -43.1484375 12.12890625 C-33.59441393 -1.51324561 -15.41758149 -7.18809813 0 0 Z M-34.62109375 15.45703125 C-39.46533988 22.45580045 -41.50790994 27.85116713 -40.62109375 36.45703125 C-38.4474342 44.12073377 -33.86891023 50.72600171 -26.99609375 54.83203125 C-20.30767025 58.05238331 -13.62832851 58.82130339 -6.51171875 56.3984375 C1.3431866 52.79338766 6.31016519 48.70071518 9.50390625 40.60546875 C11.31699306 34.08159389 11.65964468 26.38175724 8.87890625 20.08203125 C5.10793841 13.75696817 -0.90899604 9.26751551 -7.62109375 6.45703125 C-18.79018209 5.01878438 -27.25908417 6.70220905 -34.62109375 15.45703125 Z " fill="#283849" transform="translate(111.62109375,320.54296875)"/>
<path d="M0 0 C56.73264557 -0.06861964 113.46528702 -0.12150514 170.1979659 -0.15319599 C176.89101054 -0.15694825 183.5840551 -0.16082772 190.27709961 -0.16479492 C190.94314566 -0.1651872 191.6091917 -0.16557948 192.29542096 -0.16598364 C213.89229166 -0.17877261 235.48913884 -0.20131021 257.08599529 -0.22889166 C279.90428063 -0.25798015 302.72255564 -0.27598507 325.54085952 -0.28226548 C339.21426387 -0.28638826 352.88760072 -0.29942435 366.56098429 -0.3237494 C375.92873708 -0.33956895 385.29645481 -0.34440896 394.66422 -0.34050413 C400.07437264 -0.33857669 405.48440708 -0.34159617 410.89453888 -0.35761642 C415.84351125 -0.3721646 420.7922854 -0.37298554 425.74126671 -0.36269668 C427.53542583 -0.36142416 429.3295971 -0.36527266 431.12373217 -0.37464955 C433.55587091 -0.38662587 435.98728676 -0.38023872 438.41941357 -0.36914349 C439.12181657 -0.37702453 439.82421956 -0.38490557 440.5479075 -0.39302543 C445.81887235 -0.33839976 448.93153089 1.07927869 452.75 4.625 C454 7 454 7 455 16 C422.33 16 389.66 16 356 16 C356 15.67 356 15.34 356 15 C378.77 15 401.54 15 425 15 C424.34 11.7 423.68 8.4 423 5 C423 3.68 423 2.36 423 1 C283.41 1 143.82 1 0 1 C0 0.67 0 0.34 0 0 Z " fill="#0B5E7B" transform="translate(23,125)"/>
<path d="M0 0 C0 2.64 0 5.28 0 8 C-0.56847656 8.21914063 -1.13695312 8.43828125 -1.72265625 8.6640625 C-9.39047483 11.81311654 -15.85961392 15.77336789 -19.34375 23.59765625 C-21.51875424 31.55972534 -20.65356009 39.69287982 -17 47 C-13.17539726 53.32530453 -6.3877152 55.82065994 0 59 C0 61.64 0 64.28 0 67 C-8.9736473 66.66764269 -15.77233873 62.72139857 -21.875 56.1875 C-29.11139625 47.27854046 -30.9574426 37.24995056 -30 26 C-28.02177328 16.92421659 -22.05624903 9.81405636 -14.7421875 4.296875 C-9.74969417 1.09136268 -6.01584373 -0.13368542 0 0 Z " fill="#334659" transform="translate(411,319)"/>
<path d="M0 0 C0 2.64 0 5.28 0 8 C-0.66386719 8.30292969 -1.32773438 8.60585938 -2.01171875 8.91796875 C-10.31265261 12.85636803 -15.10507512 16.91280263 -19.046875 25.3203125 C-21.21174995 31.4068052 -20.73525004 36.82220583 -18.3125 42.75 C-14.88338634 49.54827778 -10.85178057 53.63639863 -4 57 C-2.68 57.33 -1.36 57.66 0 58 C0 60.97 0 63.94 0 67 C-8.66279505 66.44705564 -15.51621015 62.29244042 -21.4296875 56.03515625 C-28.6803595 46.63814105 -30.05256771 36.49298094 -29 25 C-28.18659596 21.56508292 -26.92352697 18.9452223 -25 16 C-24.51402344 15.23171875 -24.02804688 14.4634375 -23.52734375 13.671875 C-18.00777715 5.79050804 -9.90443974 -0.26768756 0 0 Z " fill="#33475A" transform="translate(92,319)"/>
<path d="M0 0 C0.92425781 -0.00386719 1.84851563 -0.00773437 2.80078125 -0.01171875 C4.24517578 0.00568359 4.24517578 0.00568359 5.71875 0.0234375 C6.68167969 0.01183594 7.64460938 0.00023437 8.63671875 -0.01171875 C9.56097656 -0.00785156 10.48523438 -0.00398438 11.4375 0 C12.28248047 0.00338379 13.12746094 0.00676758 13.99804688 0.01025391 C16.68866261 0.48057922 17.57393752 1.25710257 19.21875 3.3984375 C19.77493667 6.1030315 19.64504934 8.67580573 19.21875 11.3984375 C17.40711733 14.07275239 16.34113923 14.35764109 13.21875 15.3984375 C10.57764523 15.57241956 7.98627888 15.67522765 5.34375 15.7109375 C4.63605469 15.73994141 3.92835938 15.76894531 3.19921875 15.79882812 C-0.44284392 15.84291268 -2.60429187 15.50340479 -5.7578125 13.6328125 C-7.91168888 11.25440074 -8.42630076 10.47266019 -8.28125 7.3359375 C-7.78125 3.3984375 -7.78125 3.3984375 -6.54882812 1.67724609 C-4.24835426 0.01289774 -2.82446268 0.01131078 0 0 Z " fill="#000406" transform="translate(374.78125,278.6015625)"/>
<path d="M0 0 C3.02508145 1.73602105 5.41790069 3.83580137 7 7 C7.44408691 10.9079648 7.13704844 12.74548146 5.25 16.25 C2.25670518 19.90847144 0.71641956 20.81740217 -3.9375 21.3125 C-7.45778025 20.95328773 -9.21797817 20.16379476 -12 18 C-14.34113009 14.98997559 -14.41216607 11.72258458 -14.328125 7.96875 C-13.80947233 4.85683396 -12.21445226 3.14932131 -10 1 C-6.77140153 -0.61429923 -3.49006347 -0.59570657 0 0 Z " fill="#C4D6E3" transform="translate(419,342)"/>
<path d="M0 0 C2.8100346 1.79363911 4.50940468 3.01880935 6 6 C6.42950108 14.87635575 6.42950108 14.87635575 4 18 C1.30792498 20.09383612 -0.55813021 20.93418961 -3.9375 21.4375 C-7.86292527 20.87672496 -9.94797605 19.49711051 -13 17 C-15.34965355 13.79592697 -15.54561533 10.89725235 -15 7 C-11.17510224 0.87163222 -7.16189993 -1.02900861 0 0 Z " fill="#C4D6E3" transform="translate(101,342)"/>
</svg>
