<?xml version="1.0" encoding="UTF-8"?>
<svg version="1.1" xmlns="http://www.w3.org/2000/svg" width="512" height="512">
<path d="M0 0 C4.24931592 0.42101517 7.27950472 1.44434171 10.921875 3.6328125 C11.85112793 4.18380615 12.78038086 4.7347998 13.73779297 5.30249023 C14.73182129 5.90391846 15.72584961 6.50534668 16.75 7.125 C18.91360121 8.41093269 21.07768002 9.6960621 23.2421875 10.98046875 C24.35819336 11.6461084 25.47419922 12.31174805 26.62402344 12.99755859 C32.01253101 16.19372139 37.44352595 19.31510214 42.875 22.4375 C45.05998436 23.69646096 47.24487972 24.95557638 49.4296875 26.21484375 C50.51475586 26.83987793 51.59982422 27.46491211 52.71777344 28.10888672 C58.14659942 31.23680148 63.57319281 34.36858448 69 37.5 C71.16665583 38.75001879 73.3333225 40.00001878 75.5 41.25 C140.5 78.75 205.5 116.25 270.5 153.75 C271.57419189 154.36963623 272.64838379 154.98927246 273.75512695 155.62768555 C275.90501869 156.86818812 278.05459959 158.10922956 280.20385742 159.35083008 C285.26796479 162.27543382 290.33500902 165.19453767 295.4133606 168.09432983 C297.80537117 169.46063872 300.19559708 170.83005286 302.58569336 172.19970703 C304.26828963 173.16221014 305.95344836 174.12022931 307.63867188 175.078125 C308.66154297 175.66464844 309.68441406 176.25117188 310.73828125 176.85546875 C312.08466675 177.62346802 312.08466675 177.62346802 313.45825195 178.40698242 C318.10337116 181.31826883 321.29220551 183.46704245 323.02734375 188.796875 C323.341875 189.7446582 323.65640625 190.69244141 323.98046875 191.66894531 C324.29628906 192.68569336 324.61210937 193.70244141 324.9375 194.75 C325.27523438 195.80026367 325.61296875 196.85052734 325.9609375 197.93261719 C335 226.62737692 335 226.62737692 335 236 C336.32 235.67 337.64 235.34 339 235 C338.87625 233.948125 338.7525 232.89625 338.625 231.8125 C339.05305163 227.46064173 339.05305163 227.46064173 341.875 225.125 C346.08419534 222.26274717 347.94273636 221.89005949 353 222 C353.17499733 225.2284763 353.28106618 228.45572926 353.375 231.6875 C353.42527344 232.59951172 353.47554688 233.51152344 353.52734375 234.45117188 C353.67245539 241.10212211 353.67245539 241.10212211 351.70800781 243.72509766 C347.38055629 247.38041309 344.51759925 248.11994781 339 248 C339 247.01 339 246.02 339 245 C338.67 245.33 338.34 245.66 338 246 C338.17273907 247.65232803 338.42448313 249.29646416 338.70703125 250.93359375 C338.88065186 251.96629395 339.05427246 252.99899414 339.2331543 254.06298828 C339.42433838 255.17657715 339.61552246 256.29016602 339.8125 257.4375 C341.55277159 267.93880454 343.03088027 278.40041794 344 289 C344.11214844 290.16273438 344.22429687 291.32546875 344.33984375 292.5234375 C344.53357885 294.88541342 344.669594 297.25268606 344.75390625 299.62109375 C344.88600375 303.20499391 345.38404438 306.6751968 345.90234375 310.22265625 C346.67730733 316.96902574 347.32165691 323.50110707 345 330 C339.7433227 336.22337695 331.76737459 339.18500919 324.47265625 342.40039062 C318.79302996 345.01659644 313.49511865 348.24567149 308.125 351.4375 C305.94464219 352.69866177 303.76233616 353.95646118 301.578125 355.2109375 C300.49337891 355.83581055 299.40863281 356.46068359 298.29101562 357.10449219 C296.09700521 358.36816406 293.90299479 359.63183594 291.70898438 360.89550781 C289.51872244 362.15721841 287.32869933 363.41934368 285.13891602 364.68188477 C282.97900065 365.92639281 280.81804478 367.1690969 278.65600586 368.40991211 C273.13886799 371.5824239 267.6540397 374.79817705 262.20703125 378.08984375 C260.56468506 379.07392212 260.56468506 379.07392212 258.88916016 380.07788086 C256.80206611 381.33086938 254.72189726 382.59548865 252.64990234 383.87329102 C251.71742676 384.43072998 250.78495117 384.98816895 249.82421875 385.5625 C248.60351685 386.30693359 248.60351685 386.30693359 247.3581543 387.06640625 C244.36500307 388.25139541 243.04092153 387.99996233 240 387 C238.08614283 386.07159029 236.20736547 385.06905989 234.359375 384.015625 C233.28816406 383.40976562 232.21695312 382.80390625 231.11328125 382.1796875 C230.00339844 381.54289062 228.89351563 380.90609375 227.75 380.25 C222.86604253 377.47701307 222.86604253 377.47701307 217.96801758 374.72900391 C215 373 215 373 212.5378418 371.25146484 C210.32067377 369.73482576 208.60783768 368.65240103 206 368 C202.28364861 368.98614212 199.44054051 370.93762925 196.3125 373.125 C185.26428571 380.42642857 185.26428571 380.42642857 178.578125 379.7578125 C167.29297698 376.69037294 159.72354829 367.84450306 154 358 C151.00258882 352.31525465 149.96826993 347.57661247 149.67578125 341.16796875 C149.08158353 336.8967718 148.69149907 334.69985275 145.63549805 331.60693359 C142.35788912 329.50920075 138.99814501 327.74903839 135.5 326.0625 C134.2265242 325.40063338 132.95588173 324.73328951 131.68798828 324.06079102 C129.07992001 322.68255706 126.46156994 321.32796283 123.83300781 319.98925781 C118.05634294 317.02292104 112.47567383 313.72046097 106.875 310.4375 C104.7273823 309.19519628 102.5789435 307.95431096 100.4296875 306.71484375 C99.36975586 306.10237793 98.30982422 305.48991211 97.21777344 304.85888672 C92.89581921 302.36212196 88.57236408 299.86796327 84.2487793 297.37402344 C82.09908384 296.13399471 79.9495052 294.89376343 77.80004883 293.65332031 C72.71313934 290.71777623 67.62542411 287.78365268 62.5350647 284.85409546 C60.12456252 283.46671905 57.71448624 282.07860376 55.30444336 280.69042969 C53.59856032 279.70826185 51.89206014 278.72716615 50.18554688 277.74609375 C49.15623047 277.153125 48.12691406 276.56015625 47.06640625 275.94921875 C45.7043103 275.16550903 45.7043103 275.16550903 44.31469727 274.3659668 C42.50873799 273.30022034 40.74478871 272.16319248 39 271 C32.86468997 271.21095622 28.6641099 274.46341806 23.7421875 277.76171875 C18.58279787 281.05562659 13.99550102 282.6173604 7.75 281.65234375 C-6.20714763 275.95109818 -13.11356109 265.31340592 -19 252 C-20.17042686 248.57420002 -20.10170105 245.35649667 -20.0625 241.75 C-20.05347656 240.67234375 -20.04445313 239.5946875 -20.03515625 238.484375 C-20.02355469 237.66453125 -20.01195313 236.8446875 -20 236 C-26.83174319 236.49750015 -31.23363116 239.17924416 -36.95117188 242.76171875 C-42.44387449 246.05414379 -47.21310516 247.78780452 -53.72265625 246.43359375 C-66.74732638 240.88886774 -73.72080057 231.13615578 -79.0703125 218.2109375 C-80.10083967 214.65172182 -80.11537333 211.56948837 -80.1875 207.875 C-80.57188972 204.28075801 -80.9072755 201.94486512 -83.71044922 199.52099609 C-88.21226568 196.59445409 -93.05408521 194.352935 -97.89990234 192.06103516 C-104.31992978 188.81743608 -108.20367641 184.55138586 -111 178 C-111.27851865 175.38307818 -111.41135298 173.01039106 -111.38818359 170.40014648 C-111.39344055 169.6624704 -111.39869751 168.92479431 -111.40411377 168.1647644 C-111.41727675 165.73332283 -111.40857545 163.30254172 -111.3984375 160.87109375 C-111.40046252 159.15877662 -111.40337751 157.44646033 -111.40713501 155.73414612 C-111.41155609 152.13884295 -111.40514626 148.54376343 -111.39111328 144.94848633 C-111.37421283 140.40306998 -111.38401659 135.85818777 -111.40144253 131.31279087 C-111.58848438 73.82842292 -111.58848438 73.82842292 -100.05493164 59.05493164 C-95.79783264 54.79783264 -90.38252148 52.20506263 -85.125 49.375 C-83.86624613 48.67981123 -82.60861144 47.9825925 -81.35205078 47.28344727 C-78.79602279 45.86225657 -76.23626248 44.44817709 -73.67382812 43.03857422 C-68.35246273 40.09948827 -63.11431395 37.01978615 -57.875 33.9375 C-49.49637903 29.0324121 -41.0991921 24.16065439 -32.6875 19.3125 C-31.60718506 18.68964111 -30.52687012 18.06678223 -29.41381836 17.42504883 C-25.28491246 15.04490773 -21.15569882 12.66530462 -17.02539062 10.28759766 C-14.32862335 8.73478762 -11.6329491 7.18009668 -8.9375 5.625 C-8.13981201 5.16649658 -7.34212402 4.70799316 -6.52026367 4.2355957 C-3.05939351 2.39342479 -3.05939351 2.39342479 0 0 Z M336 239 C336.33 239.66 336.66 240.32 337 241 C337.66 240.34 338.32 239.68 339 239 C338.01 239 337.02 239 336 239 Z " fill="#3DB441" transform="translate(135,62)"/>
<path d="M0 0 C4.24931592 0.42101517 7.27950472 1.44434171 10.921875 3.6328125 C11.85112793 4.18380615 12.78038086 4.7347998 13.73779297 5.30249023 C14.73182129 5.90391846 15.72584961 6.50534668 16.75 7.125 C18.91360121 8.41093269 21.07768002 9.6960621 23.2421875 10.98046875 C24.35819336 11.6461084 25.47419922 12.31174805 26.62402344 12.99755859 C32.01253101 16.19372139 37.44352595 19.31510214 42.875 22.4375 C45.05998436 23.69646096 47.24487972 24.95557638 49.4296875 26.21484375 C50.51475586 26.83987793 51.59982422 27.46491211 52.71777344 28.10888672 C58.14659942 31.23680148 63.57319281 34.36858448 69 37.5 C71.16665583 38.75001879 73.3333225 40.00001878 75.5 41.25 C173 97.5 173 97.5 270.5 153.75 C271.57419189 154.36963623 272.64838379 154.98927246 273.75512695 155.62768555 C275.90501869 156.86818812 278.05459959 158.10922956 280.20385742 159.35083008 C285.26796479 162.27543382 290.33500902 165.19453767 295.4133606 168.09432983 C297.80537117 169.46063872 300.19559708 170.83005286 302.58569336 172.19970703 C304.26828963 173.16221014 305.95344836 174.12022931 307.63867188 175.078125 C308.66154297 175.66464844 309.68441406 176.25117188 310.73828125 176.85546875 C312.08466675 177.62346802 312.08466675 177.62346802 313.45825195 178.40698242 C320.68588299 182.93683474 320.68588299 182.93683474 321.8125 186.75 C321.9053125 187.86375 321.9053125 187.86375 322 189 C315.48655617 193.5219119 308.74503156 197.53401407 301.84295654 201.43191528 C299.37627275 202.82507455 296.91390715 204.22579131 294.45123291 205.62602234 C293.17649368 206.35075634 291.90154973 207.07513036 290.62640381 207.79914856 C284.3595776 211.35861395 278.11511577 214.95643172 271.875 218.5625 C270.82465576 219.16940674 269.77431152 219.77631348 268.69213867 220.40161133 C266.56034893 221.63340265 264.42859449 222.86525507 262.296875 224.09716797 C259.42377225 225.75541462 256.54902499 227.41072841 253.67306519 229.06401062 C251.89002182 230.08902072 250.10732023 231.11462285 248.32470703 232.14038086 C246.09196098 233.4248814 243.85860231 234.70831792 241.62451172 235.99047852 C240.61146973 236.57369873 239.59842773 237.15691895 238.5546875 237.7578125 C237.59916992 238.30598633 236.64365234 238.85416016 235.65917969 239.41894531 C232.61662399 241.22794189 229.69789422 243.18434428 226.82080078 245.24560547 C224.1990381 246.33185469 222.68472445 245.82262743 220 245 C217.6418457 243.83935547 217.6418457 243.83935547 215.17578125 242.3671875 C214.2434668 241.81627441 213.31115234 241.26536133 212.35058594 240.69775391 C210.8467334 239.79549072 210.8467334 239.79549072 209.3125 238.875 C207.13712077 237.58786197 204.96132551 236.30142686 202.78515625 235.015625 C201.10123779 234.01692383 201.10123779 234.01692383 199.38330078 232.99804688 C194.02768199 229.8352251 188.6400203 226.72871938 183.25 223.625 C182.17806396 223.00681396 181.10612793 222.38862793 180.00170898 221.75170898 C171.38353125 216.78565909 162.7449952 211.85568201 154.10488892 206.927948 C143.90018821 201.10584641 133.74206747 195.20653823 123.6015625 189.2734375 C117.40435558 185.64784606 111.19058931 182.05115082 104.97241211 178.46166992 C103.89745483 177.84062378 103.89745483 177.84062378 102.80078125 177.20703125 C102.13900879 176.82756348 101.47723633 176.4480957 100.79541016 176.05712891 C99.22364722 175.13168241 97.6917244 174.13924488 96.16796875 173.13671875 C95.45253906 172.76160156 94.73710937 172.38648438 94 172 C90.24033117 173.25322294 89.86850027 174.4394228 87.9375 177.8125 C87.43089844 178.68519531 86.92429688 179.55789062 86.40234375 180.45703125 C85.21202098 182.61552742 84.07937344 184.78444398 83 187 C81.14453125 186.78515625 81.14453125 186.78515625 79 186 C77.76171875 183.99609375 77.76171875 183.99609375 76.6875 181.4375 C71.38409944 170.27495331 63.60748174 165.53177966 53 160 C54 157 54 157 56.25 155.68359375 C57.1575 155.27238281 58.065 154.86117187 59 154.4375 C62.70967628 152.97635423 62.70967628 152.97635423 65 150 C64.29399658 149.73606445 63.58799316 149.47212891 62.8605957 149.20019531 C59.83140942 147.92926592 57.07919805 146.43237207 54.23046875 144.796875 C53.10705078 144.15363281 51.98363281 143.51039063 50.82617188 142.84765625 C49.61321505 142.14855234 48.40032616 141.44933056 47.1875 140.75 C45.92393897 140.02454649 44.66026552 139.29928874 43.39648438 138.57421875 C34.60068817 133.52219693 25.83620262 128.4170285 17.08276367 123.29199219 C9.41756808 118.80992487 1.71479895 114.39583691 -6 110 C-15.67481219 104.48736165 -25.31282137 98.91575433 -34.921875 93.2890625 C-41.99498747 89.15372426 -49.09836636 85.07347148 -56.2166748 81.0166626 C-60.31376022 78.68093969 -64.40772052 76.33974205 -68.50195312 73.99902344 C-70.85899552 72.6515055 -73.2172239 71.306093 -75.57617188 69.96191406 C-78.97269 68.02536012 -82.36162059 66.0757617 -85.75 64.125 C-86.78640625 63.53589844 -87.8228125 62.94679687 -88.890625 62.33984375 C-90.29828125 61.52580078 -90.29828125 61.52580078 -91.734375 60.6953125 C-92.97525879 59.9839917 -92.97525879 59.9839917 -94.24121094 59.25830078 C-95.11181152 58.63544189 -95.11181152 58.63544189 -96 58 C-96 57.34 -96 56.68 -96 56 C-95.00709961 55.42838135 -95.00709961 55.42838135 -93.99414062 54.84521484 C-81.97898282 47.92595587 -69.97059904 40.99617021 -58 34 C-49.57744847 29.07805617 -41.13905443 24.18447811 -32.6875 19.3125 C-31.60734619 18.68972168 -30.52719238 18.06694336 -29.41430664 17.42529297 C-25.28522261 15.04509719 -21.15585623 12.66539524 -17.02539062 10.28759766 C-14.32862335 8.73478762 -11.6329491 7.18009668 -8.9375 5.625 C-8.13981201 5.16649658 -7.34212402 4.70799316 -6.52026367 4.2355957 C-3.05939351 2.39342479 -3.05939351 2.39342479 0 0 Z " fill="#80D571" transform="translate(135,62)"/>
<path d="M0 0 C4.53124396 1.65412401 8.61864057 3.89701726 12.8125 6.25 C13.59238281 6.68546143 14.37226562 7.12092285 15.17578125 7.56958008 C23.73353842 12.37245415 32.19617718 17.33793988 40.6640625 22.296875 C50.31335124 27.94480182 60.00748712 33.51509624 69.69580078 39.09570312 C73.02614252 41.01506662 76.35509148 42.93682353 79.68359375 44.859375 C89.65143449 50.61613236 99.62403005 56.36346344 109.625 62.0625 C126.1970508 71.51306085 142.6826953 81.11547888 159 91 C156.41495396 92.98223068 153.95950142 94.62594577 151 96 C151 96.66 151 97.32 151 98 C151.83402344 98.38929688 152.66804687 98.77859375 153.52734375 99.1796875 C164.76788747 104.76776995 172.78051609 111.78415149 177 124 C177.99 124 178.98 124 180 124 C180.31453125 123.33613281 180.6290625 122.67226562 180.953125 121.98828125 C183.25301049 117.24303558 185.44142868 112.95396814 189 109 C193.50327137 110.32570004 197.09448518 112.12248422 201.04296875 114.6484375 C202.19082044 115.37247385 203.33977963 116.0947569 204.48974609 116.81542969 C205.07222107 117.18083862 205.65469604 117.54624756 206.25482178 117.92272949 C211.18756401 120.9676321 216.26899234 123.76921056 221.3125 126.625 C223.78870445 128.03219835 226.2636803 129.44154656 228.73828125 130.8515625 C229.35430206 131.20244934 229.97032288 131.55333618 230.60501099 131.91485596 C236.42740462 135.23551892 242.2167367 138.61169268 248 142 C256.59503404 147.03213225 265.22311008 152.00391788 273.875 156.9375 C283.40856083 162.37392498 292.93146269 167.82806554 302.4375 173.3125 C303.52724121 173.9408374 304.61698242 174.5691748 305.73974609 175.21655273 C313.85804909 179.903468 313.85804909 179.903468 316.57446289 181.75073242 C318.84784756 183.1907831 318.84784756 183.1907831 321.02636719 182.84057617 C323.3051798 181.870023 325.42515868 180.77813016 327.578125 179.55078125 C328.47877686 179.03990967 329.37942871 178.52903809 330.30737305 178.00268555 C331.27843994 177.44492432 332.24950684 176.88716309 333.25 176.3125 C334.2706958 175.73089111 335.2913916 175.14928223 336.34301758 174.55004883 C344.4778683 169.90307368 352.57135859 165.18552855 360.65429688 160.44897461 C369.07595726 155.51937118 377.54928052 150.68325657 386.0329895 145.86166382 C394.82009844 140.8645312 403.52979095 135.75354012 412.13769531 130.45263672 C412.88889648 129.9938916 413.64009766 129.53514648 414.4140625 129.0625 C415.0632666 128.66160156 415.7124707 128.26070312 416.38134766 127.84765625 C418 127 418 127 420 127 C428.02848713 152.33297376 428.02848713 152.33297376 430.5 162.875 C430.65952148 163.55038818 430.81904297 164.22577637 430.98339844 164.92163086 C431.69110603 168.07321783 432 170.74016026 432 174 C433.32 173.67 434.64 173.34 436 173 C435.87625 171.948125 435.7525 170.89625 435.625 169.8125 C436.05305163 165.46064173 436.05305163 165.46064173 438.875 163.125 C443.08419534 160.26274717 444.94273636 159.89005949 450 160 C450.17499733 163.2284763 450.28106618 166.45572926 450.375 169.6875 C450.42527344 170.59951172 450.47554688 171.51152344 450.52734375 172.45117188 C450.67245539 179.10212211 450.67245539 179.10212211 448.70800781 181.72509766 C444.38055629 185.38041309 441.51759925 186.11994781 436 186 C436 185.01 436 184.02 436 183 C435.67 183.33 435.34 183.66 435 184 C435.17273907 185.65232803 435.42448313 187.29646416 435.70703125 188.93359375 C435.96758301 190.48361084 435.96758301 190.48361084 436.23339844 192.06494141 C436.42450195 193.17788574 436.61560547 194.29083008 436.8125 195.4375 C438.12005482 203.31771208 439.37242381 211.18417212 440.25 219.125 C440.32968018 219.82681396 440.40936035 220.52862793 440.49145508 221.25170898 C440.69329734 223.16467076 440.84787655 225.08244387 441 227 C441.22945313 228.18335938 441.45890625 229.36671875 441.6953125 230.5859375 C441 234 441 234 439.16601562 235.61767578 C436.384881 237.39740655 433.54519854 238.95879662 430.625 240.5 C428.40603849 241.73008729 426.18729573 242.96056924 423.96875 244.19140625 C422.81503906 244.81934082 421.66132813 245.44727539 420.47265625 246.09423828 C414.96887982 249.11466002 409.55229378 252.2824233 404.125 255.4375 C401.94718569 256.69369896 399.76879613 257.94890113 397.58984375 259.203125 C392.05292154 262.39247118 386.51883007 265.58668405 380.98632812 268.78369141 C378.80796032 270.04086371 376.62829585 271.29579219 374.44726562 272.54833984 C369.21941748 275.55155475 364.01177008 278.58100813 358.83984375 281.6796875 C357.39121948 282.53687378 357.39121948 282.53687378 355.91333008 283.41137695 C354.09943463 284.48548385 352.29278893 285.5719618 350.49487305 286.67260742 C349.29471558 287.37800659 349.29471558 287.37800659 348.0703125 288.09765625 C347.37695801 288.51539307 346.68360352 288.93312988 345.96923828 289.36352539 C344 290 344 290 341.91967773 289.23706055 C338.56454115 287.0749752 335.32332422 284.78051812 332.12158203 282.3996582 C328.60147736 279.79720288 325.07484495 277.42809616 321.27734375 275.24609375 C306.29318136 266.16514624 301.57313747 254.2274597 296.14892578 238.31054688 C294.80495361 234.43798789 293.28187191 230.66100413 291.69702148 226.88183594 C291 225 291 225 291 223 C290.27039063 222.72671875 289.54078125 222.4534375 288.7890625 222.171875 C286.125535 221.0527458 283.82454475 219.77379707 281.375 218.25 C277.91160514 216.09867623 274.38574047 214.11116 270.80078125 212.171875 C265.39405579 209.23809142 260.09473431 206.15112599 254.8125 203 C252.87924872 201.85228752 250.94564236 200.70517298 249.01171875 199.55859375 C248.02220215 198.97190918 247.03268555 198.38522461 246.01318359 197.78076172 C241.06209097 194.85471492 236.09424844 191.9575744 231.125 189.0625 C230.1246875 188.47960205 229.124375 187.8967041 228.09375 187.29614258 C226.06603032 186.11487873 224.03819837 184.93380758 222.01025391 183.75292969 C207.54145939 175.32746784 193.08484656 166.88151642 178.64263916 158.4105835 C166.44009423 151.25368097 154.22258206 144.1226304 142 137 C129.26223109 129.57714781 116.53051261 122.14415214 103.8125 114.6875 C103.20862457 114.33349121 102.60474915 113.97948242 101.98257446 113.61474609 C95.76490159 109.96966446 89.54823386 106.32288807 83.33473206 102.67070007 C80.22362568 100.84216442 77.11197842 99.01455108 74 97.1875 C73.39409027 96.83174896 72.78818054 96.47599792 72.16390991 96.10946655 C63.48722923 91.01761619 54.77286894 85.99573375 46.02734375 81.02294922 C40.75007115 78.01668502 35.52132657 74.94740062 30.32763672 71.79858398 C21.87954176 66.69125415 13.33703293 61.74123359 4.8125 56.76293945 C4.18925842 56.39851746 3.56601685 56.03409546 2.92388916 55.65863037 C1.20455342 54.65330852 -0.51538164 53.64901185 -2.23535156 52.64477539 C-4.18914062 51.48240548 -6.10840809 50.26106127 -8 49 C-10.1511728 32.65530468 -6.20958475 15.04535752 0 0 Z M433 177 C433.33 177.66 433.66 178.32 434 179 C434.66 178.34 435.32 177.68 436 177 C435.01 177 434.02 177 433 177 Z " fill="#363633" transform="translate(38,124)"/>
<path d="M0 0 C0.86842529 0.48694336 1.73685059 0.97388672 2.6315918 1.47558594 C3.61957764 2.02851318 4.60756348 2.58144043 5.62548828 3.15112305 C6.68324463 3.74803955 7.74100098 4.34495605 8.83081055 4.95996094 C9.93948486 5.58330322 11.04815918 6.20664551 12.19042969 6.84887695 C21.64857659 12.18353723 31.03326154 17.64046287 40.40112305 23.13183594 C45.75069736 26.26641978 51.11480456 29.3750175 56.48852539 32.46801758 C58.70683161 33.74860735 60.92076527 35.03680318 63.13012695 36.33276367 C67.99092639 39.17367659 72.82017634 41.91165528 77.92456055 44.29199219 C92.21627264 51.18894607 97.98689305 61.5260751 104.51831055 75.70996094 C102.21832067 78.22376314 99.83525143 79.83927858 96.8894043 81.53808594 C95.94943604 82.08319824 95.00946777 82.62831055 94.04101562 83.18994141 C93.02289795 83.77404785 92.00478027 84.3581543 90.95581055 84.95996094 C89.89966553 85.5711377 88.84352051 86.18231445 87.75537109 86.81201172 C84.34605936 88.78330577 80.9327978 90.74765318 77.51831055 92.70996094 C74.07615714 94.68951436 70.6341466 96.66931139 67.19287109 98.65039062 C64.96627064 99.93160346 62.73858185 101.2109269 60.50976562 102.48828125 C53.82139091 106.3335479 47.25246807 110.29715368 40.83862305 114.58496094 C38.01195281 115.95546772 37.42400728 115.70871275 34.51831055 114.70996094 C32.77072252 113.80858083 31.05187478 112.85067535 29.35424805 111.85839844 C28.3281543 111.26220703 27.30206055 110.66601562 26.24487305 110.05175781 C25.13885742 109.40271484 24.0328418 108.75367188 22.89331055 108.08496094 C21.72694736 107.40540333 20.56027525 106.7263757 19.39331055 106.04785156 C16.96860431 104.63746961 14.54524505 103.22481349 12.12280273 101.81054688 C6.60033601 98.58895382 1.05836639 95.40117505 -4.48168945 92.20996094 C-6.6484484 90.9601209 -8.81511476 89.71012035 -10.98168945 88.45996094 C-12.05418945 87.84121094 -13.12668945 87.22246094 -14.23168945 86.58496094 C-19.10668945 83.77246094 -19.10668945 83.77246094 -23.98168945 80.95996094 C-25.05491455 80.34080811 -26.12813965 79.72165527 -27.23388672 79.08374023 C-29.3932834 77.83790324 -31.55262614 76.59197276 -33.71191406 75.34594727 C-39.23936542 72.15647141 -44.76784066 68.96879209 -50.2980957 65.78417969 C-55.71765079 62.66286186 -61.1341872 59.53637466 -66.5480957 56.40527344 C-68.44816318 55.30723178 -70.34914768 54.21077482 -72.2512207 53.11621094 C-74.68515112 51.71496764 -77.1152271 50.30729292 -79.54418945 48.89746094 C-80.24680908 48.49487061 -80.94942871 48.09228027 -81.67333984 47.67749023 C-86.36726059 44.93881866 -86.36726059 44.93881866 -87.48168945 42.70996094 C-74.21920433 34.84968593 -60.93114071 27.03505657 -47.60668945 19.28027344 C-43.39233287 16.82687706 -39.18491689 14.36206123 -34.98168945 11.88964844 C-33.91418457 11.2630835 -32.84667969 10.63651855 -31.74682617 9.9909668 C-29.72092385 8.80160368 -27.69640366 7.60988164 -25.67358398 6.4152832 C-22.95612824 4.82226747 -20.22443686 3.25896592 -17.48168945 1.70996094 C-16.57773438 1.18805176 -15.6737793 0.66614258 -14.74243164 0.12841797 C-13.87005859 -0.34869629 -12.99768555 -0.82581055 -12.09887695 -1.31738281 C-10.94427979 -1.96114868 -10.94427979 -1.96114868 -9.76635742 -2.61791992 C-5.90431504 -3.75408178 -3.40692823 -1.77099939 0 0 Z " fill="#6CCA5F" transform="translate(161.481689453125,82.2900390625)"/>
<path d="M0 0 C3.01945859 7.87628987 5.62031034 15.79178474 7.8125 23.9375 C8.14060669 25.12533081 8.14060669 25.12533081 8.4753418 26.3371582 C8.77565308 27.48317505 8.77565308 27.48317505 9.08203125 28.65234375 C9.25968018 29.32257568 9.4373291 29.99280762 9.62036133 30.68334961 C10.50173272 36.06169887 9.96504823 41.03380266 8.78515625 46.3125 C8.51541992 47.53477295 8.24568359 48.7570459 7.96777344 50.01635742 C7.66643283 51.34433302 7.36466302 52.67221129 7.0625 54 C6.75123011 55.38833867 6.44036711 56.77676863 6.12988281 58.1652832 C5.45824184 61.16032085 4.78090008 64.15400476 4.10009766 67.14697266 C3.13368715 71.39941813 2.18414946 75.65548766 1.23728943 79.912323 C0.44426588 83.4684873 -0.3573287 87.02268142 -1.16116333 90.57641602 C-1.55215065 92.31017478 -1.94041838 94.0445492 -2.32589722 95.77954102 C-2.87013864 98.22355193 -3.4258189 100.66469522 -3.984375 103.10546875 C-4.14355911 103.83122604 -4.30274323 104.55698334 -4.4667511 105.30473328 C-5.63141019 110.31705778 -6.83539372 114.39166411 -11.07104492 117.53881836 C-11.86615479 117.96815674 -12.66126465 118.39749512 -13.48046875 118.83984375 C-14.38547119 119.33846924 -15.29047363 119.83709473 -16.22290039 120.35083008 C-17.20121826 120.87443115 -18.17953613 121.39803223 -19.1875 121.9375 C-21.27438351 123.08421756 -23.36029004 124.23271456 -25.4453125 125.3828125 C-26.52458008 125.97481445 -27.60384766 126.56681641 -28.71582031 127.17675781 C-34.04786489 130.1368908 -39.3041155 133.22397719 -44.5625 136.3125 C-53.01238955 141.26105034 -61.48131678 146.17074648 -70 151 C-72.74911853 148.25088147 -72.69895803 145.45167618 -73.125 141.75 C-73.29257812 140.44546875 -73.46015625 139.1409375 -73.6328125 137.796875 C-74.70430507 125.50410304 -73.45506722 114.81291283 -70.49645996 102.93304443 C-69.4276721 98.64120301 -68.40981744 94.33714796 -67.3828125 90.03515625 C-67.1765625 89.17809082 -66.9703125 88.32102539 -66.7578125 87.43798828 C-65.20858643 80.97423168 -63.79824962 74.49346439 -62.47973633 67.97900391 C-61.99735847 65.59664794 -61.50003958 63.21726332 -60.98706055 60.84130859 C-59.85527547 55.56869013 -58.89032703 50.41617689 -58.40234375 45.04296875 C-57.63429957 38.3313632 -56.92592855 32.54636478 -51.60986328 27.91992188 C-45.47081439 23.73793491 -38.87106581 20.57654408 -32.13427734 17.48291016 C-27.7744286 15.4201495 -23.67845296 13.00587922 -19.5625 10.5 C-18.22970137 9.71003468 -16.89639528 8.92092466 -15.5625 8.1328125 C-11.61486099 5.77811737 -7.69017193 3.38566421 -3.78515625 0.9609375 C-2 0 -2 0 0 0 Z " fill="#646260" transform="translate(455,257)"/>
<path d="M0 0 C2.56879396 1.25776202 4.84970991 2.53908701 7.25 4.0625 C8.76587264 4.98870713 10.28287503 5.91306686 11.80078125 6.8359375 C13.04335693 7.59729004 13.04335693 7.59729004 14.31103516 8.37402344 C19.30530965 11.39398604 24.37631498 14.28159976 29.4375 17.1875 C31.68372378 18.48154516 33.92981577 19.77581908 36.17578125 21.0703125 C38.45049125 22.3802597 40.72523069 23.69015579 43 25 C46.29253022 26.89624186 49.58486913 28.7928102 52.87646484 30.69067383 C55.03067432 31.93194273 57.18593797 33.17138404 59.34228516 34.40893555 C64.85999687 37.58176673 70.34539828 40.79783742 75.79296875 44.08984375 C76.88786621 44.745896 77.98276367 45.40194824 79.11083984 46.07788086 C81.19793389 47.33086938 83.27810274 48.59548865 85.35009766 49.87329102 C86.74881104 50.70944946 86.74881104 50.70944946 88.17578125 51.5625 C88.98958252 52.05878906 89.80338379 52.55507812 90.6418457 53.06640625 C93.60877214 54.24101301 94.9873873 53.97418244 98 53 C100.34393461 51.931069 100.34393461 51.931069 102.67578125 50.55078125 C103.57425781 50.0393457 104.47273438 49.52791016 105.3984375 49.00097656 C106.84089844 48.16518066 106.84089844 48.16518066 108.3125 47.3125 C109.31925781 46.7359668 110.32601562 46.15943359 111.36328125 45.56542969 C114.58056119 43.71887824 117.79101791 41.86092977 121 40 C122.57467041 39.08903564 122.57467041 39.08903564 124.18115234 38.15966797 C127.28948815 36.35995264 130.39544664 34.55623166 133.5 32.75 C134.5010376 32.16766602 135.5020752 31.58533203 136.53344727 30.98535156 C140.95663417 28.40177421 145.35935528 25.79735662 149.703125 23.08203125 C150.74436523 22.43572754 150.74436523 22.43572754 151.80664062 21.77636719 C153.05719239 20.99524365 154.30132046 20.2036898 155.53710938 19.39941406 C159.43560576 16.96576489 159.43560576 16.96576489 161.98828125 17.12060547 C164.83123896 18.36336441 165.52995715 19.99459613 167.015625 22.69140625 C167.54414063 23.63564453 168.07265625 24.57988281 168.6171875 25.55273438 C169.15601563 26.54595703 169.69484375 27.53917969 170.25 28.5625 C170.80429687 29.55958984 171.35859375 30.55667969 171.9296875 31.58398438 C173.29826277 34.04977948 174.65433084 36.52165212 176 39 C173.70001012 41.5138022 171.31694089 43.12931764 168.37109375 44.828125 C167.43112549 45.3732373 166.49115723 45.91834961 165.52270508 46.47998047 C164.5045874 47.06408691 163.48646973 47.64819336 162.4375 48.25 C161.38135498 48.86117676 160.32520996 49.47235352 159.23706055 50.10205078 C155.82774881 52.07334484 152.41448725 54.03769224 149 56 C145.5578466 57.97955342 142.11583605 59.95935045 138.67456055 61.94042969 C136.4479601 63.22164252 134.2202713 64.50096596 131.99145508 65.77832031 C125.30308036 69.62358696 118.73415752 73.58719274 112.3203125 77.875 C109.49364226 79.24550678 108.90569673 78.99875181 106 78 C104.25241197 77.09861989 102.53356424 76.14071442 100.8359375 75.1484375 C99.80984375 74.55224609 98.78375 73.95605469 97.7265625 73.34179688 C96.62054688 72.69275391 95.51453125 72.04371094 94.375 71.375 C93.20863681 70.69544239 92.0419647 70.01641476 90.875 69.33789062 C88.45029377 67.92750867 86.0269345 66.51485255 83.60449219 65.10058594 C78.08202546 61.87899288 72.54005584 58.69121411 67 55.5 C64.83324105 54.25015996 62.66657469 53.00015942 60.5 51.75 C59.4275 51.13125 58.355 50.5125 57.25 49.875 C54 48 50.75 46.125 47.5 44.25 C46.4267749 43.63084717 45.3535498 43.01169434 44.24780273 42.3737793 C42.08840605 41.1279423 39.92906331 39.88201182 37.76977539 38.63598633 C32.24232403 35.44651047 26.71384879 32.25883115 21.18359375 29.07421875 C15.76403866 25.95290092 10.34750225 22.82641372 4.93359375 19.6953125 C3.03352628 18.59727084 1.13254177 17.50081388 -0.76953125 16.40625 C-3.20346167 15.0050067 -5.63353765 13.59733199 -8.0625 12.1875 C-9.11642944 11.5836145 -9.11642944 11.5836145 -10.19165039 10.9675293 C-14.88557114 8.22885772 -14.88557114 8.22885772 -16 6 C-14.4691737 4.98348293 -12.92473874 3.98744415 -11.375 3 C-10.51648438 2.443125 -9.65796875 1.88625 -8.7734375 1.3125 C-5.43462185 -0.26755924 -3.66004515 -0.51827707 0 0 Z " fill="#3DB542" transform="translate(90,119)"/>
<path d="M0 0 C7.70916391 3.85458196 15.15608657 7.64862946 22.46630859 12.1340332 C25.97096896 14.27110654 29.39371226 16.23077266 33.17578125 17.8359375 C39.476996 20.67006477 43.6233533 23.3207849 46.3125 29.90625 C48.32185814 35.83421587 49.70103081 41.88346699 51 48 C51.69628531 51.14000666 52.39690174 54.27898935 53.10107422 57.41723633 C53.52714522 59.35924167 53.93311369 61.30578849 54.31689453 63.2565918 C54.49591309 64.12840088 54.67493164 65.00020996 54.859375 65.8984375 C55.00858398 66.66849121 55.15779297 67.43854492 55.31152344 68.23193359 C55.5387207 68.81539551 55.76591797 69.39885742 56 70 C56.99 70.33 57.98 70.66 59 71 C57.63016497 74.16115776 57.0109362 74.9927092 54 77 C53.505 78.485 53.505 78.485 53 80 C55.97 79.505 55.97 79.505 59 79 C59.04825928 79.64396729 59.09651855 80.28793457 59.14624023 80.95141602 C59.75362902 88.35285394 60.82864134 95.61718658 62.0625 102.9375 C62.4312864 105.1336294 62.79729319 107.33022788 63.16015625 109.52734375 C63.32136963 110.48374756 63.48258301 111.44015137 63.64868164 112.42553711 C64 115 64 115 64 119 C60.4243715 117.71500851 57.71250497 116.21800311 54.75 113.84765625 C53.9765625 113.23599609 53.203125 112.62433594 52.40625 111.99414062 C51.6121875 111.35669922 50.818125 110.71925781 50 110.0625 C48.41871734 108.800811 46.83543985 107.54161733 45.25 106.28515625 C44.55390625 105.72707275 43.8578125 105.16898926 43.140625 104.59399414 C41.03243995 102.90931203 41.03243995 102.90931203 38.47485352 101.83740234 C34.7539384 99.07488807 33.75787016 95.56711961 32.15234375 91.31640625 C31.81376846 90.46449203 31.47519318 89.61257782 31.12635803 88.73484802 C30.04781072 86.01657031 28.99104571 83.29055546 27.9375 80.5625 C26.87835126 77.83894028 25.81443796 75.11761149 24.7379303 72.40086365 C24.06945811 70.71221091 23.41114304 69.01949234 22.76438904 67.32240295 C22.46049759 66.55157883 22.15660614 65.7807547 21.84350586 64.98657227 C21.58323105 64.31167252 21.32295624 63.63677277 21.05479431 62.94142151 C16.75818913 55.03322402 7.36846179 52.14475976 0 48 C0 32.16 0 16.32 0 0 Z " fill="#42413F" transform="translate(312,286)"/>
<path d="M0 0 C0.22684219 1.81033279 0.45127883 3.62098283 0.66748047 5.43261719 C0.90288528 7.25017743 1.17372348 9.06331061 1.46923828 10.87207031 C2.64490642 18.6020579 3.58666198 26.47837126 1 34 C-4.209976 40.25066052 -12.24539507 43.19063783 -19.52734375 46.40039062 C-25.20696199 49.01659273 -30.50492016 52.24561741 -35.875 55.4375 C-38.05274209 56.69737912 -40.23244465 57.95387541 -42.4140625 59.20703125 C-43.49848633 59.83174316 -44.58291016 60.45645508 -45.70019531 61.10009766 C-49.01574371 63.00906463 -52.33205984 64.91669286 -55.6484375 66.82421875 C-57.84909628 68.09090621 -60.04961833 69.35783124 -62.25 70.625 C-63.84678589 71.54442383 -63.84678589 71.54442383 -65.47583008 72.48242188 C-73.82822694 77.30157919 -82.1356939 82.19424435 -90.41308594 87.14111328 C-91.26805664 87.65013184 -92.12302734 88.15915039 -93.00390625 88.68359375 C-94.13034546 89.35733032 -94.13034546 89.35733032 -95.27954102 90.04467773 C-97 91 -97 91 -98 91 C-101.76614988 61.42606667 -101.76614988 61.42606667 -96.06347656 53.20996094 C-90.61303405 48.56651696 -84.08214947 46.04392343 -77.47265625 43.45458984 C-71.70676458 41.03943359 -66.47425437 37.77482151 -61.125 34.5625 C-58.94916547 33.30287502 -56.77075922 32.04768222 -54.58984375 30.796875 C-50.16383573 28.24743124 -45.73937275 25.69534182 -41.31640625 23.140625 C-34.87994379 19.42301713 -28.4409226 15.70987474 -22 12 C-20.95650391 11.39865234 -19.91300781 10.79730469 -18.83789062 10.17773438 C-15.87251402 8.47017013 -12.90534701 6.76576607 -9.9375 5.0625 C-9.04442139 4.54792236 -8.15134277 4.03334473 -7.23120117 3.50317383 C-6.42142822 3.03935303 -5.61165527 2.57553223 -4.77734375 2.09765625 C-4.06827881 1.69039307 -3.35921387 1.28312988 -2.62866211 0.86352539 C-1 0 -1 0 0 0 Z " fill="#6CC85F" transform="translate(479,358)"/>
<path d="M0 0 C7.86406575 3.82395344 15.48224584 7.91177895 23 12.375 C33.41085238 18.50470755 43.87963206 24.52422152 54.3828125 30.49365234 C55.49140625 31.12480957 56.6 31.7559668 57.7421875 32.40625 C58.7101123 32.95603516 59.67803711 33.50582031 60.67529297 34.07226562 C61.77244629 34.70841797 62.86959961 35.34457031 64 36 C64.85171783 36.39103912 65.70343567 36.78207825 66.58096313 37.18496704 C73.48638158 40.63656475 73.48638158 40.63656475 74.86941528 44.30792236 C75.15939884 47.13958136 75.12699524 49.80600729 74.9765625 52.6484375 C74.96241302 53.66096588 74.94826355 54.67349426 74.9336853 55.71670532 C74.8778619 58.93919306 74.752468 62.15462919 74.625 65.375 C74.5748227 67.56370137 74.52919822 69.75251218 74.48828125 71.94140625 C74.37824636 77.29666176 74.21111502 82.64782738 74 88 C70.26712848 86.83972445 66.9669672 85.57818879 63.62109375 83.55859375 C62.3849231 82.81959839 62.3849231 82.81959839 61.1237793 82.06567383 C60.23730713 81.52837646 59.35083496 80.9910791 58.4375 80.4375 C56.47438308 79.26231102 54.51081746 78.08787134 52.546875 76.9140625 C51.49564453 76.2840332 50.44441406 75.65400391 49.36132812 75.00488281 C43.32478004 71.40435021 37.25445385 67.86146941 31.1875 64.3125 C30.022003 63.63021412 28.85655602 62.9478428 27.69116211 62.26538086 C27.11955353 61.93243515 26.54794495 61.59948944 25.95901489 61.25645447 C24.80462495 60.57647903 23.65673653 59.88534604 22.51559448 59.18336487 C19.21211109 57.17378559 15.95690469 55.53395192 12.36791992 54.0859375 C7.67297611 52.04951608 3.2568109 50.07009941 0 46 C-2.70527133 38.50225535 -1.59549501 30.17056959 -1.0625 22.375 C-0.97713383 20.20472315 -0.89958303 18.03412396 -0.83007812 15.86328125 C-0.64359636 10.56843815 -0.36012161 5.28572247 0 0 Z " fill="#42413F" transform="translate(78,151)"/>
<path d="M0 0 C8.70991315 4.17768561 17.00315104 8.85094562 25.25 13.875 C26.39948541 14.57073262 27.54922402 15.26604707 28.69921875 15.9609375 C31.46864717 17.63655806 34.23549138 19.31627955 37 21 C36.34 21.45375 35.68 21.9075 35 22.375 C34.34 22.91125 33.68 23.4475 33 24 C33 24.66 33 25.32 33 26 C33.83402344 26.38929688 34.66804688 26.77859375 35.52734375 27.1796875 C46.76788747 32.76776995 54.78051609 39.78415149 59 52 C59.99 52 60.98 52 62 52 C62.31453125 51.33613281 62.6290625 50.67226562 62.953125 49.98828125 C65.25301049 45.24303558 67.44142868 40.95396814 71 37 C71.66 37.33 72.32 37.66 73 38 C72.67 38.99 72.34 39.98 72 41 C72.66 41.33 73.32 41.66 74 42 C74 57.51 74 73.02 74 89 C66.36489742 85.18244871 59.02694761 81.38385202 51.75 77 C49.83765962 75.85867091 47.92488294 74.71807262 46.01171875 73.578125 C44.53904541 72.69930664 44.53904541 72.69930664 43.03662109 71.80273438 C37.89788219 68.75204712 32.72905848 65.75324331 27.5625 62.75 C20.71047518 58.76027608 13.86578106 54.75991605 7.0625 50.6875 C6.44769775 50.32043945 5.83289551 49.95337891 5.19946289 49.57519531 C1.12414744 47.12414744 1.12414744 47.12414744 0 46 C-0.09295815 44.55710213 -0.11746513 43.10970215 -0.11352539 41.66381836 C-0.11344986 40.7429393 -0.11337433 39.82206024 -0.11329651 38.87327576 C-0.10813522 37.87224319 -0.10297394 36.87121063 -0.09765625 35.83984375 C-0.0962413 34.82024063 -0.09482635 33.80063751 -0.09336853 32.75013733 C-0.08775097 29.47922893 -0.0751955 26.20838787 -0.0625 22.9375 C-0.05748726 20.72591244 -0.05292396 18.51432382 -0.04882812 16.30273438 C-0.03777584 10.86846643 -0.02102063 5.43423803 0 0 Z " fill="#434240" transform="translate(156,196)"/>
<path d="M0 0 C2.22193072 1.08755642 4.31556731 2.29146115 6.42895508 3.5769043 C7.57436768 4.24713623 7.57436768 4.24713623 8.74291992 4.9309082 C10.32995997 5.86586544 11.91134481 6.8104855 13.48706055 7.7644043 C15.84015301 9.18601402 18.21214602 10.57067461 20.58911133 11.9519043 C22.05790026 12.82465137 23.5254048 13.69956458 24.99145508 14.5769043 C25.68440674 14.98086426 26.3773584 15.38482422 27.09130859 15.80102539 C28.99926758 16.9753418 28.99926758 16.9753418 31.86645508 19.2019043 C31.86645508 20.5219043 31.86645508 21.8419043 31.86645508 23.2019043 C29.5925828 24.86455464 27.45308577 26.17876139 24.99145508 27.5144043 C23.44446872 28.38790502 21.89760188 29.26161744 20.35083008 30.13549805 C19.48780273 30.61615723 18.62477539 31.09681641 17.7355957 31.59204102 C12.7851977 34.36968945 7.88220927 37.22982918 2.97088623 40.07577515 C-0.82182417 42.27129067 -4.6184514 44.45964359 -8.42749023 46.62670898 C-10.02382736 47.55593735 -11.60477112 48.51430049 -13.14428711 49.53491211 C-16.86155031 51.9668264 -20.05359779 53.07213717 -24.44750977 52.8605957 C-30.82607304 51.29639249 -36.41256346 47.31161587 -41.94604492 43.8894043 C-43.26725123 43.09402222 -44.58951045 42.30038639 -45.9128418 41.50854492 C-55.9774545 35.44922674 -55.9774545 35.44922674 -60.13354492 32.2019043 C-59.94677734 29.90893555 -59.94677734 29.90893555 -59.13354492 27.2019043 C-56.98242188 25.46362305 -56.98242188 25.46362305 -54.12182617 23.8894043 C-53.06406982 23.29458252 -52.00631348 22.69976074 -50.91650391 22.08691406 C-49.77125244 21.46486084 -48.62600098 20.84280762 -47.44604492 20.2019043 C-45.66834089 19.21692892 -43.89348187 18.22696464 -42.11885071 17.23646545 C-40.90989523 16.56208095 -39.69983015 15.88968195 -38.48869324 15.21922302 C-34.53651678 13.0224484 -30.66873879 10.7207909 -26.82885742 8.33081055 C-25.8552124 7.72946289 -24.88156738 7.12811523 -23.87841797 6.50854492 C-22.05312631 5.37454339 -20.23628937 4.22677821 -18.4296875 3.06323242 C-12.24229111 -0.73184797 -7.06203657 -2.64169786 0 0 Z " fill="#2C9A2C" transform="translate(329.133544921875,191.798095703125)"/>
<path d="M0 0 C3.01945859 7.87628987 5.62031034 15.79178474 7.8125 23.9375 C8.03123779 24.72938721 8.24997559 25.52127441 8.4753418 26.3371582 C8.67554932 27.10116943 8.87575684 27.86518066 9.08203125 28.65234375 C9.25968018 29.32257568 9.4373291 29.99280762 9.62036133 30.68334961 C10.50173272 36.06169887 9.96504823 41.03380266 8.78515625 46.3125 C8.51541992 47.53477295 8.24568359 48.7570459 7.96777344 50.01635742 C7.66643283 51.34433302 7.36466302 52.67221129 7.0625 54 C6.75123011 55.38833867 6.44036711 56.77676863 6.12988281 58.1652832 C5.45824184 61.16032085 4.78090008 64.15400476 4.10009766 67.14697266 C3.13368715 71.39941813 2.18414946 75.65548766 1.23728943 79.912323 C0.44426588 83.4684873 -0.3573287 87.02268142 -1.16116333 90.57641602 C-1.55215065 92.31017478 -1.94041838 94.0445492 -2.32589722 95.77954102 C-2.87013864 98.22355193 -3.4258189 100.66469522 -3.984375 103.10546875 C-4.14355911 103.83122604 -4.30274323 104.55698334 -4.4667511 105.30473328 C-5.63383394 110.32748883 -6.87031327 114.36366917 -11.05297852 117.57739258 C-11.82053467 118.01204834 -12.58809082 118.4467041 -13.37890625 118.89453125 C-14.63670898 119.61479492 -14.63670898 119.61479492 -15.91992188 120.34960938 C-17.22799805 121.07374023 -17.22799805 121.07374023 -18.5625 121.8125 C-19.87637695 122.56563477 -19.87637695 122.56563477 -21.21679688 123.33398438 C-27.69591837 127 -27.69591837 127 -30 127 C-28.47592931 117.15848331 -26.4986352 107.42692461 -24.4375 97.6875 C-24.26525909 96.86997253 -24.09301819 96.05244507 -23.91555786 95.21014404 C-21.22983428 82.48190298 -18.38582563 69.79479328 -15.4375 57.125 C-15.25050537 56.32131989 -15.06351074 55.51763977 -14.87084961 54.68960571 C-14.68466064 53.88945038 -14.49847168 53.08929504 -14.30664062 52.26489258 C-11.96048476 42.18015916 -9.63851188 32.09100773 -7.40383911 21.980896 C-7.0965648 20.59330544 -6.78742594 19.20612627 -6.47628784 17.81939697 C-6.05057223 15.91982597 -5.63252202 14.01854193 -5.21484375 12.1171875 C-4.97886475 11.05097168 -4.74288574 9.98475586 -4.49975586 8.88623047 C-4.03225567 6.18628556 -3.90203291 3.7323682 -4 1 C-2 0 -2 0 0 0 Z " fill="#434240" transform="translate(455,257)"/>
<path d="M0 0 C12.44558976 6.62632083 20.03620846 16.8410829 24.7890625 30.09375 C24.9953125 31.310625 25.2015625 32.5275 25.4140625 33.78125 C27.32649579 38.38847565 30.32744062 39.54369704 34.671875 41.734375 C35.37054688 42.18296875 36.06921875 42.6315625 36.7890625 43.09375 C36.7890625 44.08375 36.7890625 45.07375 36.7890625 46.09375 C33.96832788 47.76190211 31.1306422 49.39890053 28.2890625 51.03125 C27.49757812 51.49982422 26.70609375 51.96839844 25.890625 52.45117188 C19.98349796 55.81629753 14.98488353 57.96662525 8.06640625 56.52734375 C-5.20979975 50.87553652 -11.94625217 41.04821791 -17.265625 27.85546875 C-19.66681297 20.84042787 -20.70233605 13.56614279 -17.3984375 6.71875 C-13.68900028 -0.18847792 -7.77929583 -3.18868663 0 0 Z " fill="#444541" transform="translate(73.2109375,251.90625)"/>
<path d="M0 0 C11.42942026 3.34928066 18.46567616 11.6938966 24.3828125 21.6171875 C25.98165737 24.96163112 26.65736626 27.73714055 27.25 31.375 C28.02456847 35.41343976 28.55191604 36.64744976 31.83984375 39.234375 C34.01330683 40.46186173 36.22740462 41.62089758 38.48046875 42.6953125 C39.31191406 43.12585938 40.14335937 43.55640625 41 44 C41 44.66 41 45.32 41 46 C38.13546531 48.12104501 34.96581985 49.79275637 31.875 51.5625 C31.0190625 52.06974609 30.163125 52.57699219 29.28125 53.09960938 C24.0450694 56.12451063 19.78492358 58.37849236 13.578125 57.7578125 C2.32971411 54.70035853 -5.33461533 45.85415312 -11 36 C-14.82720242 27.99554617 -18.14336189 18.61646496 -15.28125 9.78125 C-12.00796366 2.70672792 -8.19665943 -1.09288792 0 0 Z " fill="#444441" transform="translate(300,384)"/>
<path d="M0 0 C11.78977008 5.07288912 18.21102661 16.34917739 22.8359375 27.71875 C23.81567773 30.87569075 24.26645215 33.08492703 23.9609375 36.34375 C24.6209375 36.59125 25.2809375 36.83875 25.9609375 37.09375 C29.72454657 38.66192045 33.3320799 40.48880046 36.9609375 42.34375 C36.9609375 43.00375 36.9609375 43.66375 36.9609375 44.34375 C34.14359245 46.47079447 31.01387069 48.14007161 27.9609375 49.90625 C26.70216797 50.66711914 26.70216797 50.66711914 25.41796875 51.44335938 C19.57292097 54.84617401 14.62354568 57.06418772 7.7109375 55.99609375 C-6.24621013 50.29484818 -13.15262359 39.65715592 -19.0390625 26.34375 C-21.12895818 20.02629392 -20.92865577 12.14824188 -18.9140625 5.84375 C-14.38525571 -2.61002268 -8.27813028 -2.66422584 0 0 Z " fill="#444441" transform="translate(135.0390625,287.65625)"/>
<path d="M0 0 C2.56879396 1.25776202 4.84970991 2.53908701 7.25 4.0625 C8.76587264 4.98870713 10.28287503 5.91306686 11.80078125 6.8359375 C13.04335693 7.59729004 13.04335693 7.59729004 14.31103516 8.37402344 C19.30530965 11.39398604 24.37631498 14.28159976 29.4375 17.1875 C31.68372378 18.48154516 33.92981577 19.77581908 36.17578125 21.0703125 C38.45049125 22.3802597 40.72523069 23.69015579 43 25 C49.5185074 28.75415434 56.03572368 32.51044319 62.546875 36.27734375 C66.9629592 38.83093972 71.39158868 41.3610262 75.828125 43.87890625 C78.01049819 45.12746169 80.1927928 46.37615447 82.375 47.625 C83.38578613 48.1929126 84.39657227 48.7608252 85.43798828 49.34594727 C93.78517975 54.14626514 97.522041 59.61416413 102.25 67.8125 C102.70890625 68.60076172 103.1678125 69.38902344 103.640625 70.20117188 C104.76404386 72.13204804 105.88371244 74.06499526 107 76 C104 77 104 77 101.86889648 76.06640625 C100.63248413 75.32197266 100.63248413 75.32197266 99.37109375 74.5625 C98.43217285 74.00506104 97.49325195 73.44762207 96.52587891 72.87329102 C95.50671387 72.25510498 94.48754883 71.63691895 93.4375 71 C91.24657101 69.69581249 89.0551481 68.39245444 86.86328125 67.08984375 C86.01458466 66.58263039 86.01458466 66.58263039 85.14874268 66.06517029 C79.17897332 62.49768742 73.15456653 59.02758919 67.125 55.5625 C64.93999648 54.30357231 62.75510126 53.04445661 60.5703125 51.78515625 C59.48524414 51.16012207 58.40017578 50.53508789 57.28222656 49.89111328 C50.7764039 46.1426677 44.27355917 42.38905819 37.77026367 38.63623047 C32.24262719 35.44671205 26.71400619 32.25892179 21.18359375 29.07421875 C15.76403866 25.95290092 10.34750225 22.82641372 4.93359375 19.6953125 C3.03352628 18.59727084 1.13254177 17.50081388 -0.76953125 16.40625 C-3.20346167 15.0050067 -5.63353765 13.59733199 -8.0625 12.1875 C-9.11642944 11.5836145 -9.11642944 11.5836145 -10.19165039 10.9675293 C-14.88557114 8.22885772 -14.88557114 8.22885772 -16 6 C-14.4691737 4.98348293 -12.92473874 3.98744415 -11.375 3 C-10.51648438 2.443125 -9.65796875 1.88625 -8.7734375 1.3125 C-5.43462185 -0.26755924 -3.66004515 -0.51827707 0 0 Z " fill="#2D9A2D" transform="translate(90,119)"/>
<path d="M0 0 C4.1141699 0.591409 7.0283862 1.95093157 10.59765625 4.0546875 C12.17063477 4.97701172 12.17063477 4.97701172 13.77539062 5.91796875 C14.86013672 6.56378906 15.94488281 7.20960938 17.0625 7.875 C18.15111328 8.51308594 19.23972656 9.15117187 20.36132812 9.80859375 C26.17968844 13.23874094 26.17968844 13.23874094 29 15 C29.70380295 15.43598007 30.4076059 15.87196014 31.13273621 16.32115173 C33 18 33 18 33.48101807 20.06913757 C33.4676944 21.25827507 33.4676944 21.25827507 33.45410156 22.47143555 C33.45379944 23.37214279 33.45349731 24.27285004 33.45318604 25.20085144 C33.43254089 26.16968765 33.41189575 27.13852386 33.390625 28.13671875 C33.38496521 29.13129593 33.37930542 30.12587311 33.37347412 31.15058899 C33.3510672 34.33004711 33.30086205 37.508382 33.25 40.6875 C33.22994062 42.84178061 33.21168887 44.99607887 33.1953125 47.15039062 C33.15118852 52.43397758 33.08423379 57.71690855 33 63 C29.62237656 61.71474267 26.51009041 60.25588161 23.375 58.4609375 C22.5089917 57.96746826 21.6429834 57.47399902 20.75073242 56.96557617 C18.89108079 55.89025618 17.03454193 54.80953772 15.1809082 53.72387695 C11.08484978 51.32572543 7.03650755 48.95971902 2.73046875 46.95703125 C-0.72710764 45.2301491 -3.33682754 43.80232922 -6 41 C-7.43933844 35.87671604 -6.79146781 31.17480615 -6 26 C-5.7939325 24.35046452 -5.58956646 22.70071577 -5.38671875 21.05078125 C-4.37806286 13.54998377 -3.26460321 6.87669921 0 0 Z " fill="#42413F" transform="translate(40,130)"/>
<path d="M0 0 C1.62704635 3.2540927 0.20746979 6.52197515 -0.5546875 9.94140625 C-0.73157608 10.76002136 -0.90846466 11.57863647 -1.0907135 12.42205811 C-1.67907652 15.13697377 -2.2771034 17.84966941 -2.875 20.5625 C-3.28520251 22.44867801 -3.69478129 24.33499176 -4.10375977 26.22143555 C-6.01805956 35.03273623 -7.96193192 43.83749102 -9.91223145 52.6408844 C-10.52778069 55.41982746 -11.14211139 58.19903796 -11.75634766 60.97827148 C-12.52502061 64.45565591 -13.30012143 67.9315152 -14.07958984 71.40649414 C-16.04810829 80.24123793 -17.79036767 89.02346581 -19 98 C-19.33 98 -19.66 98 -20 98 C-20.07404053 97.4009082 -20.14808105 96.80181641 -20.22436523 96.18457031 C-22.09735347 81.57827198 -24.90573146 67.39016166 -28.5 53.125 C-28.69109344 52.36127075 -28.88218689 51.5975415 -29.07907104 50.81066895 C-31.16386491 42.52140464 -33.40160785 34.37230788 -36.28320312 26.31591797 C-37 24 -37 24 -37 21 C-36.30551758 20.61255615 -35.61103516 20.2251123 -34.89550781 19.82592773 C-31.67967817 18.03096541 -28.46483649 16.23424044 -25.25 14.4375 C-24.15816406 13.82841797 -23.06632812 13.21933594 -21.94140625 12.59179688 C-14.57868559 8.4747726 -7.27135484 4.27615519 0 0 Z " fill="#434240" transform="translate(400,288)"/>
<path d="M0 0 C12.81702126 7.96627167 22.05832811 20.68561583 26.2890625 35.140625 C26.64740439 38.63445846 26.59858389 42.06636316 26.5390625 45.578125 C27.1990625 45.578125 27.8590625 45.578125 28.5390625 45.578125 C28.6009375 45.041875 28.6628125 44.505625 28.7265625 43.953125 C30.21506706 39.60211166 33.14916272 36.61138969 36.76171875 33.92578125 C42.82030029 30.98596321 51.0482109 31.5577949 57.42578125 33.421875 C71.50861714 39.96586153 80.5640298 53.18648673 85.8828125 67.39453125 C87.44179129 72.58184758 87.63018748 77.20175093 87.5390625 82.578125 C84.13593512 81.51937426 81.52553019 80.56910346 78.5390625 78.578125 C77.765625 76.328125 77.765625 76.328125 77.1640625 73.578125 C74.21624578 62.0425361 68.22393191 52.09270327 58.3515625 45.078125 C53.42950931 42.45302997 49.15686756 40.98048616 43.5390625 41.578125 C40.51945139 42.70170123 39.00222199 43.63883755 37.5625 46.55859375 C36.81270486 48.53819307 36.16857575 50.55705616 35.5390625 52.578125 C31.66836333 52.01834135 29.17289109 50.9377756 25.9765625 48.703125 C24.86087891 47.93355469 24.86087891 47.93355469 23.72265625 47.1484375 C23.00207031 46.63023437 22.28148437 46.11203125 21.5390625 45.578125 C20.80429688 45.09859375 20.06953125 44.6190625 19.3125 44.125 C16.7846992 41.9201341 16.8719239 39.49039206 16.28515625 36.3125 C13.35300925 25.56641153 6.74079101 15.96637409 -2.7109375 10.203125 C-7.72034399 7.36446132 -10.55124808 6.17746809 -16.4609375 6.578125 C-20.48675359 8.07610308 -21.89674691 10.0581768 -23.7734375 13.765625 C-24.3498959 15.0301879 -24.91715421 16.299171 -25.4609375 17.578125 C-31.2109375 15.703125 -31.2109375 15.703125 -33.4609375 14.578125 C-33.0557324 9.04032196 -31.15561425 5.57263154 -27.4609375 1.578125 C-19.76018353 -4.6787376 -8.76437419 -4.05387992 0 0 Z " fill="#2C992C" transform="translate(80.4609375,245.421875)"/>
<path d="M0 0 C1.8515625 0.2109375 1.8515625 0.2109375 4 1 C5.2734375 3.0390625 5.2734375 3.0390625 6.375 5.625 C10.72930568 14.85981145 16.14417597 19.11596393 25 24 C26.67014085 24.99418676 28.33779419 25.99260254 30 27 C29 30 29 30 26.99609375 31.140625 C26.15175781 31.50671875 25.30742187 31.8728125 24.4375 32.25 C13.48785255 37.5139532 8.24864799 45.33101927 3 56 C1.14453125 55.78515625 1.14453125 55.78515625 -1 55 C-2.23828125 52.99609375 -2.23828125 52.99609375 -3.3125 50.4375 C-8.61590056 39.27495331 -16.39251826 34.53177966 -27 29 C-26 26 -26 26 -23.7421875 24.60546875 C-22.79601562 24.13753906 -21.84984375 23.66960937 -20.875 23.1875 C-10.18859019 17.5536026 -5.13415501 10.8087474 0 0 Z " fill="#FDFDFD" transform="translate(215,193)"/>
<path d="M0 0 C4.42375893 0.53412553 7.53231783 1.58836058 11.359375 3.8515625 C12.37902344 4.44775391 13.39867187 5.04394531 14.44921875 5.65820312 C15.53847656 6.30724609 16.62773437 6.95628906 17.75 7.625 C18.90697352 8.30502178 20.06453713 8.98404047 21.22265625 9.66210938 C23.62665148 11.07067324 26.02805773 12.48350641 28.42773438 13.89941406 C33.9283488 17.14016978 39.46603409 20.31666323 45 23.5 C47.16684034 24.74969892 49.3335065 25.99969989 51.5 27.25 C53.10875 28.178125 53.10875 28.178125 54.75 29.125 C59.625 31.9375 59.625 31.9375 64.5 34.75 C65.57338623 35.3692334 66.64677246 35.9884668 67.75268555 36.62646484 C69.91049803 37.87141282 72.06821353 39.1165289 74.22583008 40.36181641 C79.77716592 43.56552651 85.33036541 46.7659363 90.88671875 49.9609375 C92.01754883 50.61191406 93.14837891 51.26289063 94.31347656 51.93359375 C96.53440376 53.21151076 98.75638266 54.48760199 100.97949219 55.76171875 C105.61881435 58.42907911 110.23293905 61.11227449 114.75390625 63.9765625 C115.44331299 64.40984863 116.13271973 64.84313477 116.84301758 65.28955078 C118.58728991 66.39672044 120.31784934 67.52541805 122.046875 68.65625 C125.69393392 70.31575829 127.14850503 69.94038499 131 69 C133.90259623 67.67532864 133.90259623 67.67532864 136.796875 65.9296875 C137.90691895 65.28829834 139.01696289 64.64690918 140.16064453 63.98608398 C141.35717703 63.28252651 142.55362667 62.57882811 143.75 61.875 C145.00192667 61.14763221 146.25437693 60.42116493 147.50732422 59.69555664 C150.08475987 58.20124546 152.6592665 56.70207169 155.23144531 55.19873047 C159.78869268 52.53667544 164.36303211 49.90454339 168.9375 47.2722168 C173.20432257 44.81624471 177.4667823 42.35274946 181.72949219 39.88964844 C189.55161436 35.37014817 197.37569082 30.85404451 205.203125 26.34375 C208.69709652 24.33035174 212.18740302 22.31103951 215.671875 20.28125 C216.9479087 19.54165293 218.22394954 18.80206816 219.5 18.0625 C220.5415625 17.45535156 221.583125 16.84820312 222.65625 16.22265625 C225 15 225 15 227 15 C227.33 16.65 227.66 18.3 228 20 C221.48655617 24.5219119 214.74503156 28.53401407 207.84295654 32.43191528 C205.37627275 33.82507455 202.91390715 35.22579131 200.45123291 36.62602234 C199.17649368 37.35075634 197.90154973 38.07513036 196.62640381 38.79914856 C190.3595776 42.35861395 184.11511577 45.95643172 177.875 49.5625 C176.82465576 50.16940674 175.77431152 50.77631348 174.69213867 51.40161133 C172.56034893 52.63340265 170.42859449 53.86525507 168.296875 55.09716797 C165.42377225 56.75541462 162.54902499 58.41072841 159.67306519 60.06401062 C157.89002182 61.08902072 156.10732023 62.11462285 154.32470703 63.14038086 C152.09196098 64.4248814 149.85860231 65.70831792 147.62451172 66.99047852 C146.61146973 67.57369873 145.59842773 68.15691895 144.5546875 68.7578125 C143.59916992 69.30598633 142.64365234 69.85416016 141.65917969 70.41894531 C138.61662399 72.22794189 135.69789422 74.18434428 132.82080078 76.24560547 C130.1990381 77.33185469 128.68472445 76.82262743 126 76 C123.6418457 74.83935547 123.6418457 74.83935547 121.17578125 73.3671875 C120.2434668 72.81627441 119.31115234 72.26536133 118.35058594 71.69775391 C117.34801758 71.09624512 116.34544922 70.49473633 115.3125 69.875 C113.13712077 68.58786197 110.96132551 67.30142686 108.78515625 66.015625 C107.66254395 65.34982422 106.53993164 64.68402344 105.38330078 63.99804688 C100.02768199 60.8352251 94.6400203 57.72871938 89.25 54.625 C88.17806396 54.00681396 87.10612793 53.38862793 86.00170898 52.75170898 C77.38353125 47.78565909 68.7449952 42.85568201 60.10488892 37.927948 C49.89863449 32.10495996 39.73862285 26.20539304 29.59765625 20.26953125 C25.90427995 18.1085064 22.20416313 15.95993369 18.49609375 13.82421875 C17.62992432 13.32510986 16.76375488 12.82600098 15.87133789 12.31176758 C14.26863638 11.38933253 12.66503396 10.46846001 11.06030273 9.54956055 C6.93169583 7.17217301 2.93166708 4.69139356 -1 2 C-0.67 1.34 -0.34 0.68 0 0 Z " fill="#6CC85F" transform="translate(229,231)"/>
<path d="M0 0 C2.169342 3.254013 3.0390053 6.00130718 4.125 9.75 C4.47820312 10.94109375 4.83140625 12.1321875 5.1953125 13.359375 C6.49701044 19.24861034 6.09256654 24.4633008 4.78515625 30.3125 C4.51541992 31.53477295 4.24568359 32.7570459 3.96777344 34.01635742 C3.66643283 35.34433302 3.36466302 36.67221129 3.0625 38 C2.75123011 39.38833867 2.44036711 40.77676863 2.12988281 42.1652832 C1.45824184 45.16032085 0.78090008 48.15400476 0.10009766 51.14697266 C-0.86631285 55.39941813 -1.81585054 59.65548766 -2.76271057 63.912323 C-3.55573412 67.4684873 -4.3573287 71.02268142 -5.16116333 74.57641602 C-5.55215065 76.31017478 -5.94041838 78.0445492 -6.32589722 79.77954102 C-6.87013864 82.22355193 -7.4258189 84.66469522 -7.984375 87.10546875 C-8.14355911 87.83122604 -8.30274323 88.55698334 -8.4667511 89.30473328 C-9.56472601 94.03007012 -10.81194263 98.29926053 -14.75390625 101.36328125 C-19.77777778 104 -19.77777778 104 -22 104 C-21.27371697 95.14338197 -19.35229729 86.54820691 -17.5 77.875 C-17.32625854 77.05463257 -17.15251709 76.23426514 -16.97351074 75.38903809 C-13.38579478 58.45524709 -9.50302269 41.59266619 -5.56005859 24.73867798 C-3.64080661 16.50715629 -1.81722292 8.25454556 0 0 Z " fill="#63615F" transform="translate(459,273)"/>
<path d="M0 0 C2.25536484 3.73387505 2.79701706 7.71251534 3.47265625 11.94921875 C3.6646183 13.1072979 3.6646183 13.1072979 3.86045837 14.28877258 C4.12982751 15.92142601 4.39607945 17.55459639 4.65942383 19.18823242 C5.05846216 21.66246344 5.4668162 24.13500897 5.87695312 26.60742188 C6.13857406 28.20043008 6.3996586 29.79352648 6.66015625 31.38671875 C6.83986717 32.47940315 6.83986717 32.47940315 7.02320862 33.59416199 C7.74114947 38.06357375 8.31448605 42.5318906 8.78791809 47.03384399 C8.96948667 48.71711892 9.18806993 50.3963305 9.4140625 52.07421875 C9.96170862 58.85894572 9.96170862 58.85894572 7.5546875 61.71484375 C5.12493775 63.38240964 2.6329944 64.67176333 0 66 C-1.39064456 66.77949555 -2.77707129 67.56654363 -4.16015625 68.359375 C-8.08758837 70.60873837 -12.03789013 72.81233197 -16 75 C-17.18485508 71.44543476 -16.73909258 70.07841369 -15.84765625 66.48046875 C-15.56946045 65.33046387 -15.29126465 64.18045898 -15.00463867 62.99560547 C-14.69373291 61.73893066 -14.38282715 60.48225586 -14.0625 59.1875 C-13.40726311 56.48728615 -12.76050642 53.78510772 -12.1171875 51.08203125 C-11.9465831 50.36599731 -11.7759787 49.64996338 -11.60020447 48.91223145 C-10.25103803 43.19256269 -9.01576928 37.45282121 -7.8203125 31.69921875 C-7.55229073 30.40956459 -7.55229073 30.40956459 -7.27885437 29.09385681 C-6.39912854 24.84583637 -5.5293309 20.59591464 -4.66625977 16.34448242 C-4.34400433 14.77911526 -4.02166155 13.21376608 -3.69921875 11.6484375 C-3.55674713 10.93302292 -3.41427551 10.21760834 -3.26748657 9.48051453 C-2.55786347 6.05406129 -1.78001396 3.03103169 0 0 Z " fill="#434240" transform="translate(465,296)"/>
<path d="M0 0 C7.60562126 3.95889614 12.29553199 10.66135416 15.375 18.5 C16.35736073 24.00122007 17.02545352 28.85992308 14.5625 34 C12.25290537 36.95628113 12.25290537 36.95628113 10.21484375 37.30859375 C4.50650645 37.63170718 1.22276043 36.60305913 -3.1484375 32.90234375 C-9.22310422 26.66107224 -13.91819557 18.70317539 -14.4375 9.875 C-13.9413951 5.48092806 -12.79963422 3.3760295 -10 0 C-6.6698565 -1.66507175 -3.45482211 -0.96710689 0 0 Z " fill="#DCE0E1" transform="translate(136,297)"/>
<path d="M0 0 C7.64531257 2.71037837 12.53022006 10.01789379 16.3359375 16.828125 C18.40628409 21.43935149 19.00148417 25.83155822 18.3359375 30.828125 C16.0859375 36.453125 16.0859375 36.453125 13.3359375 37.828125 C8.29284639 38.43677393 5.40182152 38.30204078 1.2109375 35.328125 C-6.23921763 29.07819132 -10.71514415 21.89229491 -12.015625 12.2109375 C-12.26363161 7.81208343 -12.05118935 5.46501111 -9.7265625 1.640625 C-6.06282228 -0.52771105 -4.12943951 -0.74082968 0 0 Z " fill="#DEE2E3" transform="translate(303.6640625,394.171875)"/>
<path d="M0 0 C7.4768443 1.61265269 12.91278587 6.51009411 17.1875 12.6875 C20.74545455 18.85992594 22.98338758 24.41473416 22.1875 31.6875 C19.9375 37.3125 19.9375 37.3125 17.1875 38.6875 C12.78838727 39.69246972 9.47702784 39.47242999 5.58203125 37.1015625 C-1.54035704 31.13211755 -6.69355557 23.96012278 -8.34765625 14.6875 C-8.58469402 10.21417188 -8.35085586 6.70440702 -5.6875 3 C-2.8125 0.6875 -2.8125 0.6875 0 0 Z " fill="#DEE2E3" transform="translate(69.8125,260.3125)"/>
<path d="M0 0 C13.66159473 6.17031314 22.79087476 18.37172237 28.0625 32.0625 C30.17110428 37.86327884 31.46575384 42.87927442 31.0625 49.0625 C27.15489721 47.90798099 24.04911677 46.87562036 21.0625 44.0625 C20.2265625 41.49609375 20.2265625 41.49609375 19.6875 38.5 C17.25712604 27.66784941 10.74943288 18.47277448 2 11.6875 C-3.31044577 8.74980659 -7.83158427 7.3964001 -13.9375 8.0625 C-18.75034225 10.79706946 -20.11310945 14.06943113 -21.9375 19.0625 C-27.56042094 17.59565106 -27.56042094 17.59565106 -29.23046875 15.234375 C-29.9375 13.0625 -29.9375 13.0625 -29.43359375 11.0625 C-23.03748374 -1.02166356 -12.60766536 -4.67729819 0 0 Z " fill="#2C992C" transform="translate(306.9375,376.9375)"/>
<path d="M0 0 C2.22193072 1.08755642 4.31556731 2.29146115 6.42895508 3.5769043 C7.57436768 4.24713623 7.57436768 4.24713623 8.74291992 4.9309082 C10.32995997 5.86586544 11.91134481 6.8104855 13.48706055 7.7644043 C15.84015301 9.18601402 18.21214602 10.57067461 20.58911133 11.9519043 C22.05790026 12.82465137 23.5254048 13.69956458 24.99145508 14.5769043 C25.68440674 14.98086426 26.3773584 15.38482422 27.09130859 15.80102539 C28.99926758 16.9753418 28.99926758 16.9753418 31.86645508 19.2019043 C31.86645508 20.5219043 31.86645508 21.8419043 31.86645508 23.2019043 C30.22973633 24.40893555 30.22973633 24.40893555 27.86645508 25.2019043 C25.15942383 23.96362305 25.15942383 23.96362305 22.05395508 21.8894043 C20.89683712 21.14133652 19.73926634 20.39396883 18.58129883 19.6472168 C17.34295257 18.8322114 16.10467304 18.0171046 14.86645508 17.2019043 C4.6949267 9.89787726 4.6949267 9.89787726 -6.99682617 6.7487793 C-11.89870672 7.78830058 -15.91196729 10.61726493 -20.13354492 13.2019043 C-22.20214559 14.36597981 -24.28275841 15.50654115 -26.36474609 16.64648438 C-36.72252946 22.32080646 -46.9336188 28.24995544 -57.13354492 34.2019043 C-58.12354492 33.5419043 -59.11354492 32.8819043 -60.13354492 32.2019043 C-59.94677734 29.90893555 -59.94677734 29.90893555 -59.13354492 27.2019043 C-56.98242188 25.46362305 -56.98242188 25.46362305 -54.12182617 23.8894043 C-53.06406982 23.29458252 -52.00631348 22.69976074 -50.91650391 22.08691406 C-49.77125244 21.46486084 -48.62600098 20.84280762 -47.44604492 20.2019043 C-45.66834089 19.21692892 -43.89348187 18.22696464 -42.11885071 17.23646545 C-40.90989523 16.56208095 -39.69983015 15.88968195 -38.48869324 15.21922302 C-34.53651678 13.0224484 -30.66873879 10.7207909 -26.82885742 8.33081055 C-25.8552124 7.72946289 -24.88156738 7.12811523 -23.87841797 6.50854492 C-22.05312631 5.37454339 -20.23628937 4.22677821 -18.4296875 3.06323242 C-12.24229111 -0.73184797 -7.06203657 -2.64169786 0 0 Z " fill="#3FB542" transform="translate(329.133544921875,191.798095703125)"/>
<path d="M0 0 C4.42375893 0.53412553 7.53231783 1.58836058 11.359375 3.8515625 C12.37902344 4.44775391 13.39867187 5.04394531 14.44921875 5.65820312 C15.53847656 6.30724609 16.62773437 6.95628906 17.75 7.625 C18.90697352 8.30502178 20.06453713 8.98404047 21.22265625 9.66210938 C23.62665148 11.07067324 26.02805773 12.48350641 28.42773438 13.89941406 C33.9283488 17.14016978 39.46603409 20.31666323 45 23.5 C47.16684034 24.74969892 49.3335065 25.99969989 51.5 27.25 C53.10875 28.178125 53.10875 28.178125 54.75 29.125 C59.625 31.9375 59.625 31.9375 64.5 34.75 C65.5732251 35.36915283 66.6464502 35.98830566 67.75219727 36.6262207 C69.91159395 37.8720577 72.07093669 39.11798818 74.23022461 40.36401367 C80.88918506 44.2063982 87.55008398 48.04539201 94.21289062 51.88110352 C97.47950974 53.76464753 100.74176666 55.65558684 104.00390625 57.546875 C107.76177305 59.72226167 111.53606427 61.85914332 115.33984375 63.953125 C116.13640381 64.39938232 116.93296387 64.84563965 117.75366211 65.30541992 C119.19540767 66.1122396 120.644949 66.90537007 122.10375977 67.6809082 C125.44240247 69.57009768 126.87377164 70.71221306 128.4375 74.27734375 C128.623125 75.17582031 128.80875 76.07429688 129 77 C125.32774624 75.01018849 121.66279845 73.00714697 118 71 C117.37270996 70.65678711 116.74541992 70.31357422 116.09912109 69.95996094 C105.83303931 64.33285072 95.68917921 58.51522824 85.58911133 52.59570312 C77.75637037 48.00996475 69.88642029 43.4924326 62 39 C51.15993691 32.82312935 40.3652478 26.57202311 29.59765625 20.26953125 C25.90427995 18.1085064 22.20416313 15.95993369 18.49609375 13.82421875 C17.62992432 13.32510986 16.76375488 12.82600098 15.87133789 12.31176758 C14.26863638 11.38933253 12.66503396 10.46846001 11.06030273 9.54956055 C6.93169583 7.17217301 2.93166708 4.69139356 -1 2 C-0.67 1.34 -0.34 0.68 0 0 Z " fill="#3EB242" transform="translate(229,231)"/>
<path d="M0 0 C0.24463575 2.03561106 0.41837613 4.07981362 0.5625 6.125 C0.71912109 7.83042969 0.71912109 7.83042969 0.87890625 9.5703125 C-0.30144715 14.17631378 -2.29346064 15.11062761 -6.26635742 17.47314453 C-7.16845947 17.97700684 -8.07056152 18.48086914 -9 19 C-9.94528564 19.55671387 -10.89057129 20.11342773 -11.86450195 20.68701172 C-14.87167803 22.44833303 -17.90033095 24.16598826 -20.9375 25.875 C-21.97712891 26.46796875 -23.01675781 27.0609375 -24.08789062 27.671875 C-25.07853516 28.23132813 -26.06917969 28.79078125 -27.08984375 29.3671875 C-27.98566162 29.87362793 -28.88147949 30.38006836 -29.80444336 30.90185547 C-32 32 -32 32 -34 32 C-34.13547465 30.08529156 -34.23220869 28.16781519 -34.3125 26.25 C-34.37050781 25.18265625 -34.42851562 24.1153125 -34.48828125 23.015625 C-34 20 -34 20 -31.83520508 18.02294922 C-29.015452 16.01102517 -26.180663 14.29005543 -23.1484375 12.6171875 C-22.05015625 12.00746094 -20.951875 11.39773438 -19.8203125 10.76953125 C-18.68335938 10.14433594 -17.54640625 9.51914062 -16.375 8.875 C-14.11142135 7.62340415 -11.84837539 6.37084426 -9.5859375 5.1171875 C-8.5861084 4.56659668 -7.5862793 4.01600586 -6.55615234 3.44873047 C-0.47118301 0 -0.47118301 0 0 0 Z " fill="#2F312D" transform="translate(446,387)"/>
<path d="M0 0 C0.17499733 3.2284763 0.28106618 6.45572926 0.375 9.6875 C0.45041016 11.05551758 0.45041016 11.05551758 0.52734375 12.45117188 C0.67245539 19.10212211 0.67245539 19.10212211 -1.29199219 21.72509766 C-5.61944371 25.38041309 -8.48240075 26.11994781 -14 26 C-14 25.01 -14 24.02 -14 23 C-14.99 22.67 -15.98 22.34 -17 22 C-16.67 20.68 -16.34 19.36 -16 18 C-16.66 17.67 -17.32 17.34 -18 17 C-18 16.01 -18 15.02 -18 14 C-16.68 13.67 -15.36 13.34 -14 13 C-14.185625 11.4221875 -14.185625 11.4221875 -14.375 9.8125 C-13.94694837 5.46064173 -13.94694837 5.46064173 -11.125 3.125 C-6.91580466 0.26274717 -5.05726364 -0.10994051 0 0 Z " fill="#3FB442" transform="translate(488,284)"/>
<path d="M0 0 C3.29590701 3.11774988 5.79711451 6.03480612 8 10 C9.05270463 11.15811388 9.05270463 11.15811388 11 12 C12.78018362 17.21502509 12.93983957 23.03859567 10.5625 28 C9 30 9 30 8 31 C6.52351124 31.09823996 5.04224583 31.12973519 3.5625 31.125 C2.75941406 31.12757813 1.95632812 31.13015625 1.12890625 31.1328125 C-1 31 -1 31 -3 30 C-3.2165625 29.0409375 -3.2165625 29.0409375 -3.4375 28.0625 C-3.86165035 25.61789145 -3.86165035 25.61789145 -7 24 C-7 23.34 -7 22.68 -7 22 C-1.25 21 -1.25 21 1 21 C0.67 19.68 0.34 18.36 0 17 C1.32 16.67 2.64 16.34 4 16 C3.67 15.34 3.34 14.68 3 14 C2.01 14.66 1.02 15.32 0 16 C-2.96076291 15.64111965 -3.84658021 15.15341979 -6 13 C-5.625 10.375 -5.625 10.375 -5 8 C-2.525 8.99 -2.525 8.99 0 10 C0 6.7 0 3.4 0 0 Z " fill="#E3E7E8" transform="translate(140,303)"/>
<path d="M0 0 C0.33 0.99 0.66 1.98 1 3 C1.66 2.34 2.32 1.68 3 1 C3.99 1 4.98 1 6 1 C4.63016497 4.16115776 4.0109362 4.9927092 1 7 C0.67 7.99 0.34 8.98 0 10 C1.98 9.67 3.96 9.34 6 9 C2.25 12 2.25 12 0 12 C0.185625 13.03125 0.37125 14.0625 0.5625 15.125 C0 19 0 19 -1.86328125 20.8359375 C-4.21876052 22.47821928 -6.34078858 23.90813836 -9 25 C-11.14746094 24.56054688 -11.14746094 24.56054688 -13 24 C-14.21268748 6.98868945 -14.21268748 6.98868945 -11.39453125 2.3671875 C-7.72140338 -0.48586117 -4.5219066 -1.97833414 0 0 Z " fill="#3FB243" transform="translate(365,356)"/>
<path d="M0 0 C0.05399736 1.45792884 0.09279177 2.91642712 0.125 4.375 C0.14820313 5.18710937 0.17140625 5.99921875 0.1953125 6.8359375 C0 9 0 9 -2 11 C-1.34 11 -0.68 11 0 11 C-0.19140625 12.796875 -0.19140625 12.796875 -1 15 C-3.21484375 16.703125 -3.21484375 16.703125 -5.9375 18.25 C-6.83339844 18.77078125 -7.72929687 19.2915625 -8.65234375 19.828125 C-11 21 -11 21 -13 21 C-13 19.68 -13 18.36 -13 17 C-15.35953094 19.35953094 -15.49141413 20.77895617 -16 24 C-17.32 24.33 -18.64 24.66 -20 25 C-21.17560789 20.29069353 -22.13767877 15.52362666 -20 11 C-15.73974872 6.98393111 -6.0914945 0 0 0 Z " fill="#EECC4F" transform="translate(406,411)"/>
<path d="M0 0 C0.59134145 4.79643617 0.88508842 9.23006238 0 14 C-2.88933677 17.08621607 -6.00735682 18.67959832 -10 20 C-10.99 20 -11.98 20 -13 20 C-12.125 16.125 -12.125 16.125 -11 15 C-15.455 17.475 -15.455 17.475 -20 20 C-20.77791116 14.29531813 -20.77791116 14.29531813 -20 11 C-17.39752128 8.28908466 -14.31075279 6.72518143 -11 5 C-9.74703125 4.26910156 -9.74703125 4.26910156 -8.46875 3.5234375 C-2.40607542 0 -2.40607542 0 0 0 Z " fill="#EFCD50" transform="translate(473,373)"/>
<path d="M0 0 C7.24013529 4.82675686 7.24013529 4.82675686 9 8 C9.34057617 10.38183594 9.34057617 10.38183594 9.29296875 12.984375 C9.28330078 13.91894531 9.27363281 14.85351562 9.26367188 15.81640625 C9.23853516 16.78449219 9.21339844 17.75257813 9.1875 18.75 C9.17396484 19.73355469 9.16042969 20.71710938 9.14648438 21.73046875 C9.11118726 24.15420415 9.06188054 26.57682145 9 29 C4.80410573 30.16552619 4.17908064 30.08954032 0 28 C0 18.76 0 9.52 0 0 Z " fill="#ED5C59" transform="translate(24,189)"/>
<path d="M0 0 C1.36120996 15.09094504 1.36120996 15.09094504 -1.58203125 19.21875 C-3.97800631 20.77289598 -6.37775516 21.86883556 -9 23 C-11.13471003 24.27555513 -13.25959907 25.56767193 -15.375 26.875 C-20.61038961 30 -20.61038961 30 -24 30 C-25.00008199 24.36555112 -26.02384903 18.50123551 -24 13 C-19.99699357 8.61786503 -14.35015135 6.26570195 -8.99853516 3.91113281 C-6.79617662 2.95254569 -6.79617662 2.95254569 -4.07421875 1.2421875 C-2 0 -2 0 0 0 Z M-7.87890625 5.15234375 C-8.63494141 5.59900391 -9.39097656 6.04566406 -10.16992188 6.50585938 C-10.95947266 6.97830078 -11.74902344 7.45074219 -12.5625 7.9375 C-13.35591797 8.40607422 -14.14933594 8.87464844 -14.96679688 9.35742188 C-18.6912762 11.39916648 -18.6912762 11.39916648 -22 14 C-22.07179964 15.51928038 -22.08392007 17.04167482 -22.0625 18.5625 C-22.041875 20.026875 -22.02125 21.49125 -22 23 C-19.36 21.68 -16.72 20.36 -14 19 C-14.33 20.32 -14.66 21.64 -15 23 C-11.70319035 22.34215037 -9.15882078 21.10579427 -6.25 19.4375 C-4.8475 18.633125 -3.445 17.82875 -2 17 C-2 12.38 -2 7.76 -2 3 C-4.55778705 3 -5.68334093 3.84965693 -7.87890625 5.15234375 Z " fill="#394332" transform="translate(475,370)"/>
<path d="M0 0 C1.79414676 11.57556907 1.79414676 11.57556907 0 17 C-3.42522836 21.03696212 -8.41972856 23.12565106 -13.19677734 25.18261719 C-15.21227931 26.04675352 -15.21227931 26.04675352 -17.73828125 27.7265625 C-20 29 -20 29 -24 29 C-25.3610586 14.85171183 -25.3610586 14.85171183 -22.41796875 10.84765625 C-20.02253281 9.28954386 -17.61176177 8.1595637 -15 7 C-12.86645066 5.72250441 -10.74155161 4.43046431 -8.625 3.125 C-3.38961039 0 -3.38961039 0 0 0 Z M-22 13 C-24.13767877 17.52362666 -23.17560789 22.29069353 -22 27 C-20.35 26.34 -18.7 25.68 -17 25 C-17 23.35 -17 21.7 -17 20 C-16.34 19.67 -15.68 19.34 -15 19 C-15 20.32 -15 21.64 -15 23 C-10.0845485 21.68122033 -5.63558224 19.62482608 -2 16 C-2 15.01 -2 14.02 -2 13 C-2.99 13 -3.98 13 -5 13 C-4.01 12.34 -3.02 11.68 -2 11 C-1.63637182 8.79274927 -1.63637182 8.79274927 -1.8125 6.375 C-1.83957031 5.55773437 -1.86664063 4.74046875 -1.89453125 3.8984375 C-1.94673828 2.95871094 -1.94673828 2.95871094 -2 2 C-8.0914945 2 -17.73974872 8.98393111 -22 13 Z " fill="#414632" transform="translate(408,409)"/>
<path d="M0 0 C3.18741239 1.23923914 6.26436318 2.57509992 9.3125 4.125 C10.00988281 4.47820312 10.70726562 4.83140625 11.42578125 5.1953125 C11.94527344 5.46085937 12.46476563 5.72640625 13 6 C13 6.66 13 7.32 13 8 C10.7136988 9.36402043 8.42178251 10.71634274 6.125 12.0625 C5.47402344 12.45244141 4.82304687 12.84238281 4.15234375 13.24414062 C2.46934275 14.22444533 0.73703801 15.11898432 -1 16 C-1.66 15.67 -2.32 15.34 -3 15 C-2.52433594 14.18789063 -2.52433594 14.18789063 -2.0390625 13.359375 C-0.81692026 10.5842851 -0.59056564 8.26791902 -0.375 5.25 C-0.30023438 4.26515625 -0.22546875 3.2803125 -0.1484375 2.265625 C-0.09945312 1.51796875 -0.05046875 0.7703125 0 0 Z " fill="#222220" transform="translate(159,324)"/>
<path d="M0 0 C3.96 1.98 7.92 3.96 12 6 C12 6.66 12 7.32 12 8 C9.52589781 9.6317293 7.06340341 11.14700164 4.5 12.625 C3.42685547 13.25535156 3.42685547 13.25535156 2.33203125 13.8984375 C0.55853967 14.93888589 -1.22025266 15.97028904 -3 17 C-3 14 -3 14 -2.0625 11.3125 C-0.83659519 7.49056146 -0.4124277 3.98680111 0 0 Z " fill="#21211F" transform="translate(329,422)"/>
<path d="M0 0 C1.62974564 0.76074843 3.25366648 1.53398433 4.875 2.3125 C5.77992187 2.74175781 6.68484375 3.17101562 7.6171875 3.61328125 C10 5 10 5 12 8 C9.54732365 9.53068488 7.08866106 11.04968623 4.625 12.5625 C3.92632812 13.00013672 3.22765625 13.43777344 2.5078125 13.88867188 C0.70814097 14.98750978 -1.14322343 16.00067867 -3 17 C-3.66 16.67 -4.32 16.34 -5 16 C-4.52949219 15.46890625 -4.05898437 14.9378125 -3.57421875 14.390625 C-1.6598427 11.48343358 -1.29754261 9.18260923 -0.8125 5.75 C-0.65394531 4.67234375 -0.49539062 3.5946875 -0.33203125 2.484375 C-0.22246094 1.66453125 -0.11289063 0.8446875 0 0 Z " fill="#21201E" transform="translate(99,289)"/>
<path d="M0 0 C0.33 0 0.66 0 1 0 C2.34507299 12.12226277 2.34507299 12.12226277 -0.37109375 15.9140625 C-2.82146313 17.54764209 -5.33241229 18.74485738 -8 20 C-10.28821845 21.25201412 -12.55660552 22.53666658 -14.82666016 23.82128906 C-17.88716822 25.54671755 -20.96978186 27.22998345 -24.05664062 28.90771484 C-25.69530514 29.82874312 -27.28447925 30.83701722 -28.859375 31.86328125 C-29.56578125 32.23839844 -30.2721875 32.61351562 -31 33 C-31.99 32.67 -32.98 32.34 -34 32 C-33.3201001 31.60731934 -32.6402002 31.21463867 -31.93969727 30.81005859 C-28.81218889 29.00142387 -25.68733758 27.18824493 -22.5625 25.375 C-21.49322266 24.75753906 -20.42394531 24.14007813 -19.32226562 23.50390625 C-16.20164095 21.69069925 -13.09955135 19.84894404 -10 18 C-9.09048584 17.48002441 -8.18097168 16.96004883 -7.24389648 16.42431641 C-2.41020345 13.60452283 -2.41020345 13.60452283 0.09765625 8.7890625 C0.08605469 7.74492187 0.07445312 6.70078125 0.0625 5.625 C0.07410156 4.56539063 0.08570313 3.50578125 0.09765625 2.4140625 C0.06542969 1.61742187 0.03320312 0.82078125 0 0 Z " fill="#D2DCCE" transform="translate(447,387)"/>
<path d="M0 0 C0.66 0.33 1.32 0.66 2 1 C0.7934375 1.6496875 0.7934375 1.6496875 -0.4375 2.3125 C-3.27846354 3.80474002 -3.27846354 3.80474002 -4 7 C-0.04 5.02 3.92 3.04 8 1 C8.33 1.66 8.66 2.32 9 3 C6.04894616 4.7004792 3.08809878 6.38311093 0.125 8.0625 C-0.71675781 8.54783203 -1.55851562 9.03316406 -2.42578125 9.53320312 C-3.23144531 9.98759766 -4.03710938 10.44199219 -4.8671875 10.91015625 C-5.61081543 11.33433838 -6.35444336 11.75852051 -7.12060547 12.19555664 C-8.05090576 12.5937561 -8.05090576 12.5937561 -9 13 C-9.66 12.67 -10.32 12.34 -11 12 C-11.125 9.375 -11.125 9.375 -10 6 C-6.90728104 3.53778262 -3.63647077 1.55502993 0 0 Z " fill="#6D6232" transform="translate(464,386)"/>
<path d="M0 0 C0.66 0.33 1.32 0.66 2 1 C1.67 3.97 1.34 6.94 1 10 C1.66 10.33 2.32 10.66 3 11 C2.34 11 1.68 11 1 11 C1 12.32 1 13.64 1 15 C2.32 14.34 3.64 13.68 5 13 C5 11.35 5 9.7 5 8 C5.99 7.67 6.98 7.34 8 7 C8 8.32 8 9.64 8 11 C10.31 10.01 12.62 9.02 15 8 C15 8.66 15 9.32 15 10 C12.515625 11.7265625 12.515625 11.7265625 9.25 13.625 C8.18265625 14.25664062 7.1153125 14.88828125 6.015625 15.5390625 C3 17 3 17 -1 17 C-1.02684679 14.35409986 -1.04676357 11.70846904 -1.0625 9.0625 C-1.07087891 8.30775391 -1.07925781 7.55300781 -1.08789062 6.77539062 C-1.09652441 4.85005687 -1.05224333 2.92464419 -1 1 C-0.67 0.67 -0.34 0.34 0 0 Z " fill="#3B4D36" transform="translate(385,421)"/>
<path d="M0 0 C-0.56589844 0.34933594 -1.13179688 0.69867188 -1.71484375 1.05859375 C-2.44832031 1.51363281 -3.18179687 1.96867187 -3.9375 2.4375 C-5.03384766 3.11619141 -5.03384766 3.11619141 -6.15234375 3.80859375 C-7.93899809 4.86864033 -7.93899809 4.86864033 -9 6 C-9.15582303 7.34015221 -9.25044142 8.68758903 -9.31640625 10.03515625 C-9.37924805 11.24848633 -9.37924805 11.24848633 -9.44335938 12.48632812 C-9.48267578 13.33646484 -9.52199219 14.18660156 -9.5625 15.0625 C-9.60568359 15.91650391 -9.64886719 16.77050781 -9.69335938 17.65039062 C-9.79976702 19.76672037 -9.90041731 21.88333813 -10 24 C-10.66 24 -11.32 24 -12 24 C-13.21541351 6.95044931 -13.21541351 6.95044931 -10.359375 2.3671875 C-6.73130837 -0.41433025 -4.44380973 -1.56133855 0 0 Z " fill="#5FB057" transform="translate(364,356)"/>
<path d="M0 0 C3.27742098 3.10026309 5.93104837 5.97098894 8 10 C8 10.66 8 11.32 8 12 C2.25 11.25 2.25 11.25 0 9 C-0.1953125 6.8359375 -0.1953125 6.8359375 -0.125 4.375 C-0.10695312 3.55773437 -0.08890625 2.74046875 -0.0703125 1.8984375 C-0.04710937 1.27195312 -0.02390625 0.64546875 0 0 Z " fill="#575655" transform="translate(140,303)"/>
<path d="M0 0 C0 2.97 0 5.94 0 9 C-3.37503669 7.8141763 -5.64722731 6.72426311 -8 4 C-7.67 3.01 -7.34 2.02 -7 1 C-4.53721199 -0.231394 -2.7204945 -0.07159196 0 0 Z " fill="#555553" transform="translate(74,264)"/>
<path d="M0 0 C-0.19140625 1.796875 -0.19140625 1.796875 -1 4 C-3.21484375 5.703125 -3.21484375 5.703125 -5.9375 7.25 C-7.28134766 8.03117187 -7.28134766 8.03117187 -8.65234375 8.828125 C-11 10 -11 10 -13 10 C-13 8.68 -13 7.36 -13 6 C-11.21118264 4.99491199 -9.41885304 3.99607264 -7.625 3 C-6.62726563 2.443125 -5.62953125 1.88625 -4.6015625 1.3125 C-2 0 -2 0 0 0 Z " fill="#D9DED5" transform="translate(406,422)"/>
<path d="M0 0 C0 2.97 0 5.94 0 9 C-3.37503669 7.8141763 -5.64722731 6.72426311 -8 4 C-7.67 3.01 -7.34 2.02 -7 1 C-4.53721199 -0.231394 -2.7204945 -0.07159196 0 0 Z " fill="#525150" transform="translate(304,397)"/>
<path d="M0 0 C0 1.32 0 2.64 0 4 C-2.08203125 5.703125 -2.08203125 5.703125 -4.8125 7.25 C-6.15248047 8.03117187 -6.15248047 8.03117187 -7.51953125 8.828125 C-10 10 -10 10 -13 10 C-12.80859375 8.203125 -12.80859375 8.203125 -12 6 C-9.78515625 4.296875 -9.78515625 4.296875 -7.0625 2.75 C-5.71865234 1.96882813 -5.71865234 1.96882813 -4.34765625 1.171875 C-2 0 -2 0 0 0 Z " fill="#D8DED4" transform="translate(473,383)"/>
<path d="M0 0 C0 2.97 0 5.94 0 9 C-3.56311466 7.21844267 -5.35645475 5.83236991 -8 3 C-5.53387212 -0.1151089 -3.89156016 -0.31553191 0 0 Z " fill="#4F4F4D" transform="translate(134,299)"/>
<path d="M0 0 C4.67025461 3.15557744 6.12344231 5.8641579 8 11 C2.25 10.25 2.25 10.25 0 8 C-0.26991906 5.31160615 -0.08737357 2.70858064 0 0 Z " fill="#4D4C4B" transform="translate(310,402)"/>
<path d="M0 0 C2.64752004 2.57784846 4.94432065 4.91648098 7 8 C7 8.99 7 9.98 7 11 C2.25 10.25 2.25 10.25 0 8 C-0.26991906 5.31160615 -0.08737357 2.70858064 0 0 Z " fill="#4D4C4A" transform="translate(80,269)"/>
<path d="M0 0 C1.875 0.3125 1.875 0.3125 4 1 C6 4 6 4 6 8 C1.125 7.125 1.125 7.125 0 6 C-0.04080783 4.00041636 -0.04254356 1.99954746 0 0 Z " fill="#535250" transform="translate(74,276)"/>
<path d="M0 0 C1.875 0.3125 1.875 0.3125 4 1 C6 4 6 4 6 8 C4.35 7.67 2.7 7.34 1 7 C0.67 4.69 0.34 2.38 0 0 Z " fill="#4F4E4C" transform="translate(304,409)"/>
<path d="M0 0 C0.33 0 0.66 0 1 0 C1.33 2.64 1.66 5.28 2 8 C1.01 8 0.02 8 -1 8 C-0.34 9.32 0.32 10.64 1 12 C-1.31 12 -3.62 12 -6 12 C-5.52797514 7.75177626 -3.03344482 5.80010291 0 3 C-0.66 2.67 -1.32 2.34 -2 2 C-1.34 2 -0.68 2 0 2 C0 1.34 0 0.68 0 0 Z " fill="#394A37" transform="translate(371,354)"/>
<path d="M0 0 C3.875 1.875 3.875 1.875 5 3 C5.04063832 4.66617115 5.042721 6.33388095 5 8 C2.13275314 7.42655063 1.1385485 7.1385485 -1 5 C-0.625 2.375 -0.625 2.375 0 0 Z " fill="#4C4C4A" transform="translate(135,311)"/>
<path d="M0 0 C1.98 0 3.96 0 6 0 C5.67 2.31 5.34 4.62 5 7 C4.01 7.33 3.02 7.66 2 8 C0.74335022 5.09399739 0 3.20395416 0 0 Z " fill="#565554" transform="translate(83,287)"/>
<path d="M0 0 C0.66 0 1.32 0 2 0 C2 1.32 2 2.64 2 4 C4.31 3.01 6.62 2.02 9 1 C9 1.66 9 2.32 9 3 C6.8828125 4.5078125 6.8828125 4.5078125 4.125 6.125 C3.22007812 6.66382813 2.31515625 7.20265625 1.3828125 7.7578125 C-1 9 -1 9 -3 9 C-3 8.34 -3 7.68 -3 7 C-2.34 6.67 -1.68 6.34 -1 6 C-1.0309375 4.7934375 -1.0309375 4.7934375 -1.0625 3.5625 C-1 1 -1 1 0 0 Z " fill="#373D31" transform="translate(391,428)"/>
<path d="M0 0 C1.98 0 3.96 0 6 0 C5.67 2.31 5.34 4.62 5 7 C4.01 7.33 3.02 7.66 2 8 C1.34 5.36 0.68 2.72 0 0 Z " fill="#535250" transform="translate(313,420)"/>
<path d="M0 0 C0.33 0 0.66 0 1 0 C1.33 5.28 1.66 10.56 2 16 C1.01 16 0.02 16 -1 16 C-1.02685095 13.52076199 -1.04676547 11.0418116 -1.0625 8.5625 C-1.07506836 7.50192383 -1.07506836 7.50192383 -1.08789062 6.41992188 C-1.09653588 4.61306441 -1.05220011 2.80612397 -1 1 C-0.67 0.67 -0.34 0.34 0 0 Z " fill="#2F2F2B" transform="translate(452,384)"/>
<path d="M0 0 C0.33 0 0.66 0 1 0 C1.462882 4.75096938 1.71732735 9.26778075 1 14 C-1.23704339 16.71713946 -3.59438694 18.11782312 -7 19 C-7.66 18.67 -8.32 18.34 -9 18 C-8.15115234 17.55914062 -8.15115234 17.55914062 -7.28515625 17.109375 C-3.52230799 14.80801965 -1.33084853 13.34739351 -0.24609375 8.9296875 C-0.02301072 5.93400108 0.07772735 3.00221882 0 0 Z " fill="#DBE2D7" transform="translate(447,387)"/>
<path d="M0 0 C-6 4 -6 4 -12 8 C-12.66 7.34 -13.32 6.68 -14 6 C-6.75 -0.14673913 -6.75 -0.14673913 0 0 Z " fill="#68C75D" transform="translate(488,284)"/>
<path d="M0 0 C0.33 0 0.66 0 1 0 C1 2.64 1 5.28 1 8 C2.32 8 3.64 8 5 8 C4.67 9.65 4.34 11.3 4 13 C2.68 13.33 1.36 13.66 0 14 C0 9.38 0 4.76 0 0 Z " fill="#BD9322" transform="translate(386,422)"/>
<path d="M0 0 C4.8 3.32307692 4.8 3.32307692 5.8125 6.75 C5.874375 7.4925 5.93625 8.235 6 9 C5.01 9.66 4.02 10.32 3 11 C2.49384702 9.73160474 1.99530901 8.46016898 1.5 7.1875 C1.2215625 6.47980469 0.943125 5.77210938 0.65625 5.04296875 C0 3 0 3 0 0 Z " fill="#5A5958" transform="translate(294,406)"/>
<path d="M0 0 C0.33 0 0.66 0 1 0 C1.12375 1.134375 1.2475 2.26875 1.375 3.4375 C1.684375 5.2009375 1.684375 5.2009375 2 7 C2.66 7.33 3.32 7.66 4 8 C3.67 9.32 3.34 10.64 3 12 C1.02 12 -0.96 12 -3 12 C-2.67 10.68 -2.34 9.36 -2 8 C-1.34 8 -0.68 8 0 8 C0 5.36 0 2.72 0 0 Z " fill="#C2C4C5" transform="translate(134,300)"/>
<path d="M0 0 C2 0.9375 2 0.9375 3.25 4 C3.4975 4.969375 3.745 5.93875 4 6.9375 C1.0280615 5.81298273 -1.33440687 4.71456209 -4 2.9375 C-4 2.2775 -4 1.6175 -4 0.9375 C-2 -0.0625 -2 -0.0625 0 0 Z " fill="#51514F" transform="translate(137,324.0625)"/>
<path d="M0 0 C1.8125 0.125 1.8125 0.125 4 1 C5.75 4.0625 5.75 4.0625 7 7 C3.31245243 6.50168276 1.39509338 5.89932357 -1 3 C-0.67 2.01 -0.34 1.02 0 0 Z " fill="#525150" transform="translate(74,289)"/>
<path d="M0 0 C1.32 0 2.64 0 4 0 C4.99 2.31 5.98 4.62 7 7 C1.33846154 5.52307692 1.33846154 5.52307692 -0.375 2.875 C-0.58125 2.25625 -0.7875 1.6375 -1 1 C-0.67 0.67 -0.34 0.34 0 0 Z " fill="#504F4D" transform="translate(304,422)"/>
<path d="M0 0 C2.475 0.495 2.475 0.495 5 1 C5.1875 3.375 5.1875 3.375 5 6 C4.01 6.66 3.02 7.32 2 8 C0.74335022 5.09399739 0 3.20395416 0 0 Z " fill="#4A4948" transform="translate(144,322)"/>
<path d="M0 0 C1.65 1.32 3.3 2.64 5 4 C4.67 5.98 4.34 7.96 4 10 C3.34 10 2.68 10 2 10 C1.34 6.7 0.68 3.4 0 0 Z " fill="#4F4F4D" transform="translate(125,309)"/>
<path d="M0 0 C1.65 1.32 3.3 2.64 5 4 C4.625 5.9375 4.625 5.9375 4 8 C3.01 8.495 3.01 8.495 2 9 C0.50178941 5.62902617 0 3.79557881 0 0 Z " fill="#494846" transform="translate(65,275)"/>
<path d="M0 0 C1.32 0 2.64 0 4 0 C4.33 1.65 4.66 3.3 5 5 C-0.75 9 -0.75 9 -3 9 C-3 8.34 -3 7.68 -3 7 C-2.195625 6.525625 -1.39125 6.05125 -0.5625 5.5625 C2.2918076 4.20016328 2.2918076 4.20016328 3 1 C1.68 1.33 0.36 1.66 -1 2 C-0.67 1.34 -0.34 0.68 0 0 Z " fill="#4C5846" transform="translate(403,421)"/>
<path d="M0 0 C-1.26831693 0.81642254 -2.53975931 1.62799105 -3.8125 2.4375 C-4.87404297 3.11619141 -4.87404297 3.11619141 -5.95703125 3.80859375 C-8 5 -8 5 -11 6 C-8.99478859 0.71353355 -5.45752006 -1.70692649 0 0 Z " fill="#71B765" transform="translate(364,356)"/>
<path d="M0 0 C2.475 0.495 2.475 0.495 5 1 C5 2.98 5 4.96 5 7 C4.34 7 3.68 7 3 7 C3 6.01 3 5.02 3 4 C2.01 3.67 1.02 3.34 0 3 C0 2.01 0 1.02 0 0 Z " fill="#36A03C" transform="translate(471,303)"/>
<path d="M0 0 C0.66 0.33 1.32 0.66 2 1 C2.4140625 3.06640625 2.4140625 3.06640625 2.625 5.5625 C2.69976562 6.38878906 2.77453125 7.21507812 2.8515625 8.06640625 C2.92503906 9.02353516 2.92503906 9.02353516 3 10 C2.01 10.495 2.01 10.495 1 11 C-1.42857143 3.57142857 -1.42857143 3.57142857 0 0 Z " fill="#C8CBCB" transform="translate(64,274)"/>
<path d="M0 0 C1.85776765 3.13498292 2.20140476 5.37471432 2 9 C-0.15377564 6.37801226 -1.40072174 4.35595828 -2 1 C-1.34 0.67 -0.68 0.34 0 0 Z " fill="#C9CCCD" transform="translate(125,312)"/>
<path d="M0 0 C3 1 3 1 4.3125 3.375 C4.6528125 4.674375 4.6528125 4.674375 5 6 C4.01 7.485 4.01 7.485 3 9 C2.01 6.03 1.02 3.06 0 0 Z " fill="#D2D5D5" transform="translate(84,272)"/>
</svg>
